<?xml version="1.0" encoding="UTF-8" standalone="no"?>
<!-- Created with Inkscape (http://www.inkscape.org/) -->

<svg
   width="98.90876mm"
   height="98.90876mm"
   viewBox="0 0 98.90876 98.90876"
   version="1.1"
   id="svg1"
   xml:space="preserve"
   inkscape:version="1.4.2 (ebf0e940, 2025-05-08)"
   sodipodi:docname="borderland-2026.svg"
   inkscape:export-filename="borderland-2026.png"
   inkscape:export-xdpi="262.96561"
   inkscape:export-ydpi="262.96561"
   xmlns:inkscape="http://www.inkscape.org/namespaces/inkscape"
   xmlns:sodipodi="http://sodipodi.sourceforge.net/DTD/sodipodi-0.dtd"
   xmlns="http://www.w3.org/2000/svg"
   xmlns:svg="http://www.w3.org/2000/svg"><sodipodi:namedview
     id="namedview1"
     pagecolor="#ffffff"
     bordercolor="#000000"
     borderopacity="0.25"
     inkscape:showpageshadow="2"
     inkscape:pageopacity="0.0"
     inkscape:pagecheckerboard="0"
     inkscape:deskcolor="#d1d1d1"
     inkscape:document-units="mm"
     inkscape:zoom="1.2694521"
     inkscape:cx="146.91377"
     inkscape:cy="210.72083"
     inkscape:window-width="1440"
     inkscape:window-height="752"
     inkscape:window-x="0"
     inkscape:window-y="31"
     inkscape:window-maximized="1"
     inkscape:current-layer="layer1" /><defs
     id="defs1" /><g
     inkscape:label="Ebene 1"
     inkscape:groupmode="layer"
     id="layer1"
     transform="translate(-55.54562,-47.304192)"><rect
       style="fill:#5d5eed;fill-opacity:1;stroke-width:0.264583;stroke-linecap:round;-inkscape-stroke:none"
       id="rect1"
       width="98.90876"
       height="98.90876"
       x="55.54562"
       y="47.304192" /><path
       style="fill:#20c5ff;fill-opacity:1"
       d="m 109.01844,134.29131 c -2.07887,-0.22263 -4.45733,-1.08771 -9.271002,-3.37199 -4.628015,-2.19618 -6.508983,-2.9706 -8.513151,-3.50501 -1.622234,-0.43257 -4.362436,-0.88006 -6.769182,-1.10543 -0.535516,-0.0502 -1.192083,-0.13311 -1.459036,-0.18435 -0.491656,-0.0944 -0.75036,-0.26821 -0.607475,-0.40817 0.04226,-0.0414 1.048395,-0.11694 2.235845,-0.16786 2.391732,-0.10256 3.567603,-0.20074 4.680107,-0.39076 2.57978,-0.44065 5.453434,-1.60906 7.779487,-3.16309 2.321516,-1.551 4.706667,-3.66629 5.925617,-5.25518 2.14302,-2.7934 3.83017,-6.83397 3.81811,-9.14399 -0.0129,-2.46927 -1.27024,-4.41623 -3.69213,-5.71716 -0.58129,-0.31224 -1.15892,-0.6742 -1.28362,-0.80437 l -0.22674,-0.23666 0.19909,-0.12832 c 0.27251,-0.17566 1.18729,-0.34932 2.99308,-0.56823 1.79242,-0.217281 2.96344,-0.194231 5.08,0.10001 0.95291,0.13248 1.79408,0.18997 2.83633,0.19387 1.48082,0.006 1.48223,0.005 2.46814,-0.30745 1.14686,-0.363871 1.71443,-0.455721 2.04036,-0.330211 0.19162,0.0738 0.23283,0.14131 0.23283,0.381491 0,0.2368 -0.0653,0.34775 -0.3464,0.58834 -0.4247,0.36352 -1.28895,0.82351 -2.02427,1.07739 -0.8383,0.28944 -2.13552,0.26089 -4.191,-0.0922 -2.03614,-0.34981 -3.3691,-0.39155 -3.7395,-0.11709 -0.31712,0.23497 -0.36809,0.64151 -0.10365,0.82673 0.15626,0.10944 0.36817,0.12308 1.25388,0.0807 0.85005,-0.0407 1.1621,-0.023 1.54131,0.0872 0.58744,0.17077 0.75776,0.33942 0.5513,0.54589 -0.11302,0.11302 -0.37191,0.15493 -1.22039,0.19756 -0.59232,0.0298 -1.08647,0.0585 -1.09811,0.064 -0.0964,0.0449 0.0176,0.46878 0.17538,0.65225 l 0.19654,0.2285 0.7198,-0.14283 c 0.76933,-0.15266 1.33729,-0.0981 1.74461,0.16758 0.38745,0.25273 0.15361,0.45576 -0.86528,0.7513 -0.91134,0.26435 -1.39955,0.62006 -1.39955,1.01974 0,0.23795 0.23085,0.2315 1.36508,-0.0381 1.8218,-0.4331 2.35714,-0.38018 1.86177,0.18401 -0.35497,0.40429 -1.10655,0.7851 -2.0454,1.03635 -0.86507,0.23151 -0.96853,0.29936 -1.04971,0.68844 -0.0995,0.47664 0.0797,0.51067 1.06956,0.20314 1.53097,-0.47564 2.68018,-0.64623 2.7034,-0.40131 0.037,0.39007 -0.30745,0.84478 -0.84079,1.11003 -0.2183,0.10858 -0.79319,0.30664 -1.27753,0.44015 -1.06603,0.29386 -1.66885,0.6362 -1.89473,1.07601 -0.24812,0.48313 -0.12777,0.56997 0.78992,0.56997 0.87646,0 1.89027,-0.12882 2.3911,-0.30383 0.19598,-0.0685 0.57112,-0.25643 0.83364,-0.41765 0.55602,-0.34148 0.81619,-0.39411 0.94768,-0.19174 0.14427,0.22204 -0.13829,0.53776 -1.01489,1.13396 -1.02618,0.69795 -2.6508,1.2186 -3.8025,1.2186 -0.71615,0 -1.4076,0.48494 -1.25574,0.88069 0.0672,0.17507 0.73603,0.36968 1.49931,0.43625 2.48519,0.21674 5.18292,-1.97787 5.55442,-4.51853 0.21604,-1.47749 -0.31619,-3.4049 -1.31479,-4.76141 -0.46338,-0.62945 -0.59718,-0.90422 -0.49161,-1.00956 0.043,-0.0429 0.53534,-0.15804 1.09414,-0.25591 0.5588,-0.0979 1.42882,-0.31364 1.93338,-0.47948 1.51503,-0.49797 2.18948,-0.35417 2.85143,0.60794 0.97371,1.41523 1.09317,3.88802 0.25347,5.24669 -0.21214,0.34325 -0.15272,0.52363 0.19696,0.59792 0.44773,0.0951 1.4192,0.58454 2.0478,1.03168 0.3269,0.23253 1.15995,0.9636 1.85122,1.62459 2.18419,2.08852 2.50549,2.30783 4.53517,3.09569 1.56704,0.60826 2.12436,0.90882 2.73748,1.47629 0.6977,0.64576 1.16142,1.65173 1.16142,2.51951 0,0.30919 -0.0261,0.36563 -0.16933,0.36563 -0.19801,0 -0.44676,-0.22865 -0.62617,-0.57559 -0.32368,-0.62593 -1.0674,-1.04437 -2.5892,-1.45676 -1.27119,-0.34448 -1.92963,-0.62787 -2.84701,-1.22535 -0.74257,-0.48363 -1.15955,-0.80594 -2.91229,-2.25109 -2.4768,-2.04217 -4.1514,-2.84348 -5.49138,-2.62768 -1.00277,0.16149 -1.42509,0.43876 -2.30656,1.51432 -0.69716,0.85067 -1.02111,1.16004 -1.72545,1.64773 -0.67441,0.46697 -1.32142,0.72853 -3.08816,1.2484 -3.10678,0.91418 -3.46697,1.16891 -5.80751,4.10702 -0.74191,0.93134 -1.66077,2.00284 -2.04191,2.38111 -1.21938,1.21021 -2.485209,1.90975 -4.727355,2.61247 -0.6985,0.21892 -1.8034,0.57557 -2.455333,0.79256 -1.098275,0.36555 -1.185334,0.40992 -1.185334,0.604 0,0.19315 0.145007,0.26941 1.862667,0.97956 2.793175,1.15481 3.437431,1.46377 5.305355,2.54422 2.42216,1.40104 3.32885,1.78255 5.40498,2.27426 1.71893,0.40712 2.71515,0.49788 5.54445,0.50511 3.17881,0.008 3.16806,0.003 1.72008,0.83129 -1.76903,1.01201 -2.73357,1.26507 -4.21653,1.10626 z m 7.87489,-26.41393 c 0.56142,-0.60017 0.84087,-1.0982 0.84391,-1.50401 0.004,-0.58974 -0.64784,-1.41372 -1.38354,-1.74779 -0.66802,-0.30334 -1.03,-0.15082 -0.78187,0.32943 0.23032,0.44578 0.31672,0.98249 0.34381,2.13567 0.0151,0.64305 0.0528,1.21019 0.0838,1.26032 0.12587,0.20366 0.39248,0.0624 0.8939,-0.47362 z m 2.94127,25.14572 c -0.43504,-0.0519 -0.40148,-0.19696 0.0455,-0.19696 1.2628,0 3.63591,-0.45514 5.35195,-1.02645 5.35166,-1.7817 9.1196,-5.54926 10.2673,-10.26628 0.11247,-0.46223 0.14508,-0.94871 0.13975,-2.0846 -0.006,-1.31004 -0.0321,-1.57556 -0.22417,-2.29225 -0.48496,-1.80966 -1.20441,-3.08802 -2.43115,-4.31982 -1.23597,-1.24108 -1.84844,-1.60855 -6.0215,-3.61284 -1.8978,-0.9115 -2.82349,-1.51199 -3.8675,-2.50881 -1.48364,-1.41659 -2.05385,-2.39186 -2.89975,-4.95965 -0.28114,-0.85342 -0.49378,-1.56906 -0.47253,-1.5903 0.0213,-0.0213 0.0934,0.0893 0.16024,0.24568 0.93273,2.18079 1.34914,2.88705 2.21664,3.75956 1.45694,1.46535 3.17461,2.29622 6.64634,3.21498 4.0989,1.08473 5.964,2.03264 7.18358,3.65093 0.48485,0.64337 1.08669,1.81035 1.36932,2.65518 0.88944,2.65862 0.73568,5.79638 -0.42793,8.73303 -1.83099,4.6209 -5.7614,8.49019 -10.08876,9.93188 -1.66667,0.55526 -2.33817,0.65471 -4.59788,0.68096 -1.1176,0.013 -2.17487,0.007 -2.3495,-0.0142 z m -1.7145,-0.97068 c -0.85365,-0.10799 -0.85969,-0.14336 -0.0258,-0.15093 5.04875,-0.0458 9.24946,-1.63001 11.9614,-4.51089 2.06761,-2.1964 3.26347,-5.05957 3.26141,-7.80854 -0.002,-2.00859 -0.57833,-3.57248 -1.74972,-4.74387 -0.65074,-0.65074 -1.2659,-1.05733 -2.46209,-1.62731 -3.03341,-1.44543 -3.65345,-1.75997 -4.29989,-2.18135 -3.01901,-1.96789 -5.53894,-6.44778 -5.75817,-10.23682 l -0.0399,-0.69023 0.333,1.27 c 0.66431,2.53353 1.56046,4.16024 3.17427,5.76199 1.20014,1.19118 2.19358,1.80769 4.69545,2.9139 2.96328,1.31022 3.96548,1.90416 5.05908,2.99816 3.25305,3.25426 3.62409,8.11831 0.92718,12.15456 -1.47904,2.21356 -3.5321,3.91595 -6.33539,5.25329 -2.86106,1.3649 -6.0193,1.94231 -8.74081,1.59804 z m -8.02649,-1.34662 c -0.0657,-0.25124 0.0155,-0.46655 0.81283,-2.15533 0.82549,-1.74841 1.25146,-2.91226 1.51384,-4.13615 0.15164,-0.7073 0.18528,-1.15102 0.19034,-2.51018 0.007,-1.87069 -0.0766,-2.44242 -0.51955,-3.55378 -0.15823,-0.39704 -0.3097,-0.91865 -0.3366,-1.15914 -0.0434,-0.38844 -0.0252,-0.46091 0.16305,-0.6492 0.29011,-0.29011 0.70073,-0.39073 1.84313,-0.45169 1.13104,-0.0603 1.65216,0.0501 2.31841,0.49142 0.75269,0.49856 1.49864,1.63942 1.79159,2.74006 0.0744,0.2794 0.16091,1.06045 0.19233,1.73566 0.0545,1.17157 0.0654,1.22886 0.23945,1.25366 0.2451,0.0349 0.41153,-0.21951 0.66316,-1.01382 0.30398,-0.95951 0.40506,-2.19441 0.30033,-3.66899 -0.13054,-1.83815 -0.22071,-2.14181 -0.89396,-3.01057 -0.20063,-0.2589 -0.45048,-0.63514 -0.55522,-0.83608 -0.24749,-0.47482 -0.15966,-0.63122 0.37413,-0.66628 1.58089,-0.10381 3.0905,2.32008 3.10078,4.97875 0.007,1.6944 -0.61286,4.0328 -1.58111,5.969 -0.72748,1.45474 -1.45525,2.30664 -2.86795,3.35717 -0.99244,0.73799 -1.47739,0.96803 -1.7421,0.82637 -0.26806,-0.14346 -0.16607,-0.5874 0.42153,-1.83478 0.84302,-1.7896 1.1384,-2.93491 1.14074,-4.42309 0.002,-1.50588 -0.34916,-2.44953 -1.20889,-3.24523 -0.26014,-0.24077 -0.70641,-0.56211 -0.9917,-0.71407 -0.48105,-0.25625 -0.52879,-0.26621 -0.65775,-0.13725 -0.0792,0.0792 -0.11559,0.19815 -0.0846,0.2763 0.13002,0.32748 0.46047,2.25643 0.55291,3.22758 0.19994,2.10063 -0.15525,4.28749 -0.95576,5.88433 -0.35954,0.71721 -1.79786,2.76426 -2.22826,3.17132 -0.50418,0.47683 -0.9098,0.58037 -0.99514,0.25401 z m 5.82516,-0.24574 c -1.19918,-0.0417 -1.49507,-0.0781 -1.77339,-0.21784 -0.18373,-0.0923 -0.34857,-0.2146 -0.36632,-0.27186 -0.0446,-0.14388 0.39696,-0.32722 1.26827,-0.52662 2.26377,-0.51806 3.57604,-1.4583 5.38283,-3.85683 1.21929,-1.61861 2.10554,-3.72307 2.45053,-5.81895 0.11768,-0.71492 0.12125,-0.95 0.027,-1.778 -0.12261,-1.07744 -0.10466,-1.38163 0.0808,-1.36848 0.0698,0.005 0.45671,0.25823 0.85975,0.56286 1.04367,0.78882 1.63724,1.09509 3.06182,1.57981 2.09812,0.7139 2.86179,1.2457 3.38137,2.35469 0.23899,0.5101 0.2689,0.65804 0.27001,1.33563 0.002,0.93755 -0.20434,1.64712 -0.77382,2.667 -0.83824,1.50122 -3.24412,3.57331 -5.19589,4.47503 -1.98874,0.9188 -3.30891,1.05024 -8.67295,0.86356 z m 7.10646,-2.36933 c 0.95494,-0.32272 1.99511,-0.72278 2.31148,-0.88903 1.55576,-0.81753 2.82338,-2.35626 3.07864,-3.7371 0.25348,-1.37121 -0.61791,-2.56762 -2.34304,-3.21696 -0.30126,-0.11339 -0.71242,-0.20617 -0.91369,-0.20617 -0.54682,0 -0.66103,0.1741 -0.73667,1.12288 -0.10432,1.30862 -0.5671,3.0786 -1.06356,4.0678 -0.37012,0.73746 -0.92784,1.52407 -1.63933,2.31213 -0.74773,0.8282 -0.81285,0.99186 -0.44819,1.12651 0.01,0.004 0.79942,-0.25735 1.75436,-0.58006 z m -15.22966,2.09191 c -0.27056,-0.38629 -0.086,-1.08651 0.59761,-2.26717 0.3751,-0.64784 0.84485,-2.04224 1.09614,-3.25378 0.57905,-2.79174 0.20879,-6.26958 -0.61905,-5.81477 -0.39225,0.2155 -1.48658,1.51317 -1.80897,2.1451 -0.20538,0.40258 -0.11314,0.57345 0.30958,0.57345 0.35319,0 0.54689,0.0735 0.54689,0.20761 0,0.20089 -0.30098,0.36942 -0.98858,0.55354 -0.71585,0.19168 -0.99502,0.3841 -0.94409,0.65072 0.0258,0.13517 0.14576,0.15976 0.95992,0.1968 0.85667,0.039 0.93042,0.0556 0.93042,0.21002 0,0.30837 -0.60263,0.5459 -1.74183,0.68654 -1.02082,0.12602 -1.53074,0.2946 -1.77259,0.58602 -0.0854,0.10293 -0.0926,0.17784 -0.0267,0.28135 0.078,0.12269 0.27904,0.14107 1.54274,0.14107 1.15844,0 1.46813,0.0242 1.52741,0.11932 0.11065,0.17758 0.0324,0.30006 -0.31607,0.49485 -0.52678,0.29444 -1.19598,0.37167 -2.29267,0.26458 -1.37036,-0.13381 -1.82714,-0.0753 -2.98929,0.38287 -1.303,0.51369 -1.917283,0.66559 -2.736287,0.6766 -0.878423,0.0118 -1.143,-0.0614 -1.143,-0.31641 0,-0.36296 0.443291,-0.6501 1.673426,-1.08398 2.185041,-0.77067 3.495361,-1.87564 5.409991,-4.56214 1.7054,-2.39294 2.51226,-3.23921 3.56836,-3.74266 0.98127,-0.46778 1.70901,-0.20896 2.20537,0.78433 0.64404,1.28884 0.66716,2.57485 0.0982,5.45864 -0.61198,3.10162 -1.02585,4.55665 -1.64647,5.7884 -0.17285,0.34305 -0.40506,0.71452 -0.51604,0.8255 -0.26972,0.26972 -0.74009,0.27664 -0.92433,0.0136 z m -28.38611,-6.16463 c -0.912678,-0.11462 -1.707257,-0.31464 -2.200293,-0.55388 -0.444879,-0.21587 -0.663177,-0.47977 -1.312285,-1.58641 -0.319701,-0.54504 -0.802787,-0.86852 -1.542986,-1.0332 -0.338188,-0.0752 -0.730787,-0.20728 -0.872441,-0.29343 -0.398867,-0.24256 -0.676298,-0.91149 -0.825862,-1.99128 -0.19599,-1.41497 -0.597166,-2.01712 -1.503624,-2.25689 -0.347127,-0.0918 -0.593532,-0.0793 -1.820334,0.0922 -1.178638,0.16481 -1.47914,0.1817 -1.774886,0.0998 -0.680989,-0.18858 -0.753691,-0.4221 -0.368793,-1.18458 0.567661,-1.12453 0.708627,-1.87617 0.475687,-2.53639 -0.226042,-0.64068 -0.453774,-0.84889 -1.451942,-1.3275 -1.203126,-0.57689 -1.421213,-0.81196 -1.372905,-1.4798 0.02601,-0.35959 0.149462,-0.70844 0.514,-1.45244 0.593825,-1.21196 0.656833,-1.53321 0.403398,-2.05673 -0.274251,-0.56653 -0.911614,-1.07099 -2.156784,-1.70705 -1.331571,-0.68019 -1.486412,-0.80654 -1.485988,-1.21255 5.68e-4,-0.54299 0.965747,-1.81793 1.735444,-2.2924 1.264642,-0.77958 1.487586,-0.94456 1.681433,-1.24425 0.445364,-0.688551 0.387003,-1.194321 -0.348443,-3.019676 -0.454581,-1.128257 -0.482429,-1.238818 -0.484364,-1.923056 -0.0019,-0.659423 0.01885,-0.753413 0.226001,-1.025252 0.407076,-0.534205 0.693698,-0.614884 2.229045,-0.627441 1.543665,-0.01262 1.860901,-0.106822 2.300496,-0.683083 0.216193,-0.283405 0.237412,-0.373634 0.234143,-0.995615 -0.002,-0.376181 -0.03549,-1.122116 -0.07447,-1.657632 -0.08272,-1.136315 0.01257,-1.494091 0.47238,-1.773719 0.446464,-0.271511 0.897177,-0.292506 2.105685,-0.09809 1.757719,0.282777 2.290803,0.220801 2.525168,-0.293574 0.05782,-0.126909 0.163015,-0.672691 0.233757,-1.21285 0.142186,-1.085664 0.331737,-1.616398 0.652313,-1.826448 0.321928,-0.210935 1.79129,-0.699605 2.688286,-0.894051 2.516619,-0.545538 5.529241,-0.170337 9.688477,1.206632 1.366037,0.452245 2.267171,0.877932 2.685275,1.2685 0.416034,0.388634 0.249723,0.434271 -1.043403,0.28632 -3.243097,-0.371054 -5.80475,-0.200969 -7.820752,0.519272 -0.745007,0.266163 -2.390206,1.087224 -3.262186,1.628043 -2.785767,1.727788 -4.823726,3.948595 -6.181055,6.735626 -0.930839,1.911309 -1.223295,3.138663 -1.220561,5.122344 0.0045,3.25539 0.796981,6.06111 2.391472,8.46666 0.599609,0.90461 2.394525,2.72098 3.499205,3.54103 3.594077,2.66802 6.510221,3.61161 12.117124,3.92078 3.643405,0.20091 6.32729,-0.22152 10.871598,-1.71112 1.96679,-0.64471 2.42254,-0.75335 2.51727,-0.60006 0.18911,0.30599 -1.24107,1.81274 -3.253059,3.42722 -4.136914,3.3196 -8.67563,5.30941 -13.864223,6.07821 -1.317849,0.19526 -4.948205,0.29065 -6.006018,0.15781 z m -4.511675,-1.1886 c -1.524787,-0.5365 -3.26867,-1.48435 -4.675333,-2.54117 -0.701282,-0.52687 -3.420694,-3.18564 -3.340413,-3.26592 0.02341,-0.0234 0.126239,0.002 0.228508,0.057 0.117828,0.0631 0.702032,0.10434 1.594752,0.11269 1.274654,0.0119 1.445619,0.0313 1.795387,0.20369 0.558813,0.27538 0.736176,0.64344 0.89409,1.85538 0.226466,1.73805 0.690292,2.22978 2.103263,2.22978 0.796678,0 1.378223,0.17862 1.715251,0.52684 0.34702,0.35855 0.663776,1.08899 0.467649,1.0784 -0.03493,-0.002 -0.387345,-0.11738 -0.783154,-0.25664 z m 68.464725,-7.0636 c 0.464,-1.06596 1.20613,-3.08549 1.46231,-3.97933 1.08561,-3.78782 1.00783,-7.08309 -0.22584,-9.56734 -0.76343,-1.53732 -1.90286,-2.673121 -3.47397,-3.462881 -2.02862,-1.019736 -4.45376,-1.362688 -8.06795,-1.140927 -3.25053,0.199446 -4.03795,0.121554 -5.60051,-0.554007 -1.01607,-0.439289 -1.56372,-0.795 -2.22655,-1.446184 -0.67183,-0.660028 -1.05623,-1.330108 -1.05623,-1.8412 v -0.326285 l 0.6985,0.58043 c 1.37422,1.14193 2.13776,1.618474 3.15264,1.967646 1.53967,0.529723 3.96651,0.698024 5.63152,0.390546 2.13033,-0.393405 3.25627,-0.569627 4.18931,-0.655673 3.21282,-0.296288 5.81031,0.539123 7.79864,2.508214 1.77857,1.761371 2.58944,3.863191 2.58215,6.693101 -0.007,2.60269 -0.79399,5.09611 -2.47176,7.82832 -0.55821,0.90903 -1.76477,2.56767 -2.30955,3.1749 l -0.30384,0.33867 z m -0.68494,-0.55442 c 0.79698,-2.34483 1.00887,-3.78173 1.01069,-6.85391 10e-4,-2.19431 -0.0658,-2.64797 -0.57618,-3.89467 -0.7331,-1.79081 -1.78853,-2.88319 -3.32422,-3.44062 -1.09359,-0.39695 -1.88163,-0.46161 -5.30874,-0.43562 -3.08162,0.0234 -3.1677,0.0195 -3.90856,-0.17626 -1.24992,-0.33027 -2.30173,-0.847821 -3.32777,-1.637461 -0.50776,-0.39076 -1.72462,-1.587745 -1.98298,-1.950581 l -0.17325,-0.243302 0.42305,0.260306 c 0.77778,0.478568 2.1696,1.085501 2.98216,1.300427 1.04749,0.27707 1.78738,0.3351 2.87866,0.22578 3.61249,-0.361874 6.13453,-0.20744 8.24116,0.50465 2.98923,1.01042 4.67268,2.966311 5.18373,6.022631 0.11091,0.66325 0.13319,1.17225 0.0992,2.26589 -0.0578,1.86007 -0.29932,3.17973 -0.96991,5.2999 -0.29676,0.93827 -1.31294,3.4029 -1.46623,3.55619 -0.0449,0.0449 0.0538,-0.31664 0.2192,-0.80335 z m -77.348016,0.12718 c -1.698058,-2.30975 -3.008309,-5.2422 -3.419083,-7.65218 -0.167503,-0.98273 -0.186066,-2.54698 -0.0302,-2.5447 0.05821,8.5e-4 0.465509,0.18183 0.905114,0.40217 1.034839,0.51868 1.295927,0.82465 1.343685,1.57467 0.03651,0.57336 0.03564,0.57585 -0.647752,1.8568 -0.716758,1.34349 -0.354392,2.11608 1.404097,2.99364 1.282719,0.64014 1.848554,1.44063 1.630729,2.30703 -0.09616,0.38246 -0.558807,1.51672 -0.666744,1.63463 -0.03029,0.0331 -0.264218,-0.22435 -0.519848,-0.57206 z m 17.230551,-1.42688 c -1.27616,-0.33916 -2.273689,-0.79403 -3.668875,-1.67301 -3.612925,-2.27616 -5.556423,-4.92306 -6.144625,-8.36854 -0.752001,-4.404951 0.524071,-8.432699 3.404603,-10.746169 1.773107,-1.424054 4.242074,-2.28245 6.281897,-2.184055 1.980381,0.09553 3.116877,0.882785 3.201895,2.217972 0.05587,0.877359 -0.443582,2.182156 -1.248466,3.261586 -0.752917,1.009738 -2.495481,2.574765 -3.538273,3.177785 -0.433927,0.25093 -0.417682,0.36006 0.137389,0.922931 1.012715,1.02695 1.324225,1.84581 1.264821,3.32479 -0.04342,1.08104 -0.273144,1.58515 -1.044436,2.29189 -0.776872,0.71187 -1.513229,1.0532 -2.375994,1.10137 -0.605134,0.0338 -0.729663,0.014 -1.104066,-0.17577 -0.65013,-0.32944 -1.362047,-1.17466 -1.699253,-2.01742 -0.132134,-0.33024 -0.131926,-0.35897 0.0033,-0.45787 0.121539,-0.0889 0.274007,-0.0399 0.966516,0.31014 1.276549,0.64534 2.124486,0.64799 2.763832,0.009 0.502921,-0.50292 0.67967,-0.96921 0.681478,-1.79783 0.0014,-0.63366 -0.02617,-0.76685 -0.230513,-1.11446 -0.127647,-0.21714 -0.374927,-0.48308 -0.549511,-0.59098 -0.290568,-0.17958 -0.414496,-0.19632 -1.464637,-0.19787 -0.953618,-0.001 -1.18593,-0.027 -1.376656,-0.15181 -0.543099,-0.35533 -0.247256,-0.67549 1.590888,-1.721661 3.821721,-2.175106 5.315978,-3.672099 4.748892,-4.757589 -0.449214,-0.859863 -1.733961,-1.298716 -2.929938,-1.000828 -1.852063,0.461303 -3.864276,2.159964 -4.826246,4.074199 -0.542563,1.079648 -0.763259,1.935548 -0.821553,3.186129 -0.0785,1.68408 0.232594,3.12471 1.030613,4.77254 1.714572,3.54043 5.165776,6.11155 8.428565,6.27921 2.259346,0.1161 3.89983,-0.80293 5.107619,-2.86138 0.601129,-1.02452 0.863985,-1.60247 1.582411,-3.47933 0.315969,-0.82546 0.718486,-1.75891 0.894483,-2.07433 0.46774,-0.8383 1.127643,-1.49187 1.883525,-1.86545 0.568549,-0.28099 0.710752,-0.31479 1.444464,-0.3433 0.673207,-0.0262 0.895455,-8.8e-4 1.286216,0.14632 0.925949,0.34881 1.510061,1.05557 1.729888,2.09314 0.158813,0.74959 0.157257,1.24156 -0.0064,2.03403 -0.168219,0.8144 -0.426464,1.39324 -0.871294,1.95295 -0.690543,0.86888 -1.546929,1.27288 -3.105317,1.46493 -0.840281,0.10355 -1.055563,0.17994 -1.055563,0.37456 0,0.11861 1.545646,1.36353 2.413,1.94353 1.22499,0.81914 2.351909,1.20529 3.767666,1.29103 0.646224,0.0391 1.0562,0.005 2.08561,-0.17277 1.32439,-0.22893 1.9358,-0.27422 2.01312,-0.14912 0.12252,0.19825 -0.75055,0.69568 -1.85506,1.05691 -1.09196,0.35713 -2.137901,0.50298 -3.64067,0.50768 -1.538625,0.005 -2.070244,-0.0958 -3.058163,-0.57866 -0.755959,-0.36951 -1.229776,-0.75902 -1.905292,-1.56628 -0.69788,-0.834 -1.134924,-1.23556 -1.57837,-1.45023 -0.628148,-0.30408 -0.982312,-0.0888 -1.648978,1.00211 -0.803596,1.31504 -1.86029,2.19416 -3.15453,2.62442 -0.578286,0.19224 -0.850665,0.22906 -1.862666,0.25179 -1.034778,0.0233 -1.28212,9.1e-4 -1.947334,-0.17588 z m 11.07274,-6.77947 c 1.097649,-0.23259 2.035276,-0.9697 2.261562,-1.77792 0.223608,-0.79865 -0.123707,-1.82569 -0.738896,-2.18498 -0.461742,-0.26967 -0.844016,-0.0208 -1.574247,1.02476 -0.610227,0.87376 -1.594103,2.63492 -1.562802,2.79746 0.05137,0.26675 0.737333,0.32653 1.614383,0.14068 z m 4.549201,4.31769 c -2.223997,-0.4201 -3.739743,-1.13927 -3.533569,-1.67655 0.02732,-0.0712 0.363667,-0.23108 0.747449,-0.35531 0.995652,-0.32231 1.433787,-0.5669 2.05281,-1.14596 0.617566,-0.57771 1.13283,-1.32222 1.467719,-2.12075 0.20327,-0.48468 0.228954,-0.65414 0.230257,-1.5192 0.0018,-1.20041 -0.158799,-1.67033 -0.839528,-2.4564 -0.689471,-0.79615 -0.607418,-1.15346 0.248583,-1.08248 0.360071,0.0299 0.783357,0.19726 1.962803,0.77622 1.96018,0.9622 2.80404,1.47899 3.53026,2.16196 0.69856,0.65698 1.08084,1.2203 1.33344,1.96497 0.26537,0.78233 0.20472,1.84505 -0.14924,2.61507 -0.5903,1.28413 -1.80056,2.24367 -3.42577,2.71607 -0.80792,0.23484 -2.692952,0.29846 -3.625214,0.12236 z m 3.577904,-2.11617 c 2.30712,-0.48889 3.20104,-2.49926 1.8809,-4.23005 -0.35558,-0.46619 -1.31178,-1.07555 -1.76851,-1.12703 -0.3808,-0.0429 -0.39129,-0.0376 -0.51597,0.26078 -0.07,0.16753 -0.12727,0.51017 -0.12727,0.76143 0,1.27588 -0.50646,2.41547 -1.527084,3.4361 -0.63036,0.63036 -0.756612,0.82792 -0.6178,0.96673 0.104986,0.10498 2.098534,0.0543 2.675734,-0.068 z m -17.421845,0.95603 c -1.074884,-0.40093 -1.87739,-1.67386 -2.081857,-3.30224 -0.210037,-1.67274 0.873743,-3.547 2.522122,-4.36167 0.601395,-0.29723 0.707428,-0.32202 1.375678,-0.32166 0.618159,3.4e-4 0.801257,0.036 1.251896,0.2438 1.270392,0.58583 1.945681,1.90978 1.719066,3.37035 -0.195618,1.26079 -0.992573,2.78085 -1.872999,3.57242 -0.656486,0.59024 -1.262755,0.85218 -2.024906,0.87485 -0.34925,0.0104 -0.7493,-0.0237 -0.889,-0.0759 z m 1.420205,-2.33497 c 1.282772,-0.6954 2.09637,-2.56839 1.601566,-3.68697 -0.339882,-0.76836 -0.989604,-0.91117 -1.908937,-0.41959 -0.560636,0.29978 -1.324876,1.0582 -1.560739,1.54886 -0.544677,1.13308 -0.33772,2.26374 0.492176,2.68891 0.448868,0.22995 0.765388,0.19977 1.375934,-0.13121 z m 45.01277,-1.41612 c -2.03875,-0.34346 -3.53621,-1.16364 -5.38194,-2.94774 -1.8342,-1.77296 -2.66572,-3.08194 -2.72699,-4.292801 l -0.0321,-0.635 0.18951,0.16934 c 0.10423,0.0931 0.34269,0.39429 0.52991,0.66924 0.70674,1.037891 1.50596,1.730491 2.55748,2.216331 0.74104,0.34238 1.55626,0.54524 3.34686,0.83284 2.11774,0.34014 2.98889,0.67876 3.76094,1.46188 1.164,1.18067 0.91115,2.23853 -0.61128,2.5574 -0.54327,0.11379 -0.79931,0.10885 -1.63235,-0.0315 z m -68.657974,-5.11105 c 0,-0.14473 0.433113,-2.028721 0.676002,-2.940511 0.266347,-0.999862 0.736901,-2.404178 0.843202,-2.516445 0.09616,-0.101557 0.765641,1.852246 0.82312,2.402175 0.09979,0.95475 -0.340847,1.681941 -1.606639,2.651461 -0.620039,0.47491 -0.735685,0.53831 -0.735685,0.40332 z m 21.428377,-0.86404 c -0.69557,-0.14139 -0.94944,-0.610151 -0.609599,-1.125611 0.08745,-0.13263 0.571749,-0.60956 1.076224,-1.05983 2.226782,-1.987531 3.48506,-3.943729 3.743517,-5.819905 0.143041,-1.038362 -0.03945,-1.608084 -0.71796,-2.241355 -0.497344,-0.464187 -0.966325,-0.699025 -1.844529,-0.923632 -1.070359,-0.273751 -2.112462,-0.211409 -3.581317,0.214249 -0.753569,0.218376 -1.412401,0.269971 -1.506344,0.117967 -0.220186,-0.356268 1.662068,-1.194853 3.897964,-1.736626 0.939967,-0.227761 2.104095,-0.272051 2.96895,-0.112956 1.122154,0.206425 2.306606,0.982856 2.810166,1.842115 0.288852,0.492889 0.355012,1.43028 0.155823,2.207789 -0.397402,1.551212 -1.668937,3.883416 -3.239813,5.942347 -0.629053,0.824497 -0.727461,1.055717 -0.488362,1.147467 0.07284,0.0279 0.711012,-0.0143 1.418166,-0.0938 1.986857,-0.22346 3.292823,-0.25729 4.010409,-0.10387 0.582086,0.12444 1.042994,0.33805 1.042994,0.48336 0,0.13169 -0.562702,0.24791 -2.032,0.41971 -2.175255,0.25434 -3.218023,0.403351 -4.402667,0.629131 -1.274176,0.24285 -2.197891,0.31583 -2.701622,0.21344 z m 11.599552,-0.777391 c -0.158621,-0.0589 -0.363529,-0.20841 -0.45535,-0.33228 -0.270261,-0.3646 -0.146631,-0.71672 0.505252,-1.439028 1.538872,-1.705121 2.953416,-3.649753 3.624776,-4.983131 0.489227,-0.971644 0.635392,-1.506455 0.635392,-2.324864 0,-1.64972 -0.69844,-2.935399 -1.895058,-3.488396 -0.453708,-0.209674 -0.617915,-0.239359 -1.324056,-0.239359 -0.739414,0 -0.852657,0.02291 -1.368636,0.276929 -0.698088,0.343668 -1.329269,0.903176 -1.779506,1.577435 -0.528584,0.791589 -0.818789,1.066636 -1.125419,1.066636 -0.144536,0 -0.308512,-0.04572 -0.364392,-0.1016 -0.304326,-0.304326 0.08688,-1.370684 0.886957,-2.417693 0.776759,-1.016492 1.908792,-1.858197 2.990777,-2.223743 0.766234,-0.258871 1.997213,-0.209021 2.777717,0.112487 1.44177,0.593901 2.552571,1.85487 2.938201,3.33542 0.17763,0.681953 0.16055,1.810618 -0.0392,2.591722 -0.35751,1.397862 -1.13225,2.782226 -2.970222,5.307407 -0.660931,0.90805 -1.220679,1.699108 -1.243884,1.757908 -0.02321,0.0588 0.0018,0.15996 0.05564,0.22479 0.08047,0.097 0.45406,0.1102 2.104972,0.0746 2.214544,-0.0478 2.814434,0.0235 3.728264,0.44268 0.59345,0.27225 0.52111,0.32913 -0.57812,0.45457 -2.775333,0.31668 -6.651809,0.49541 -7.104073,0.32753 z m 18.237735,-0.96529 c -2.93901,-0.44957 -5.66823,-3.527127 -5.86012,-6.608047 -0.0569,-0.914118 0.0535,-1.581073 0.4099,-2.476439 0.68182,-1.712728 2.40684,-3.237537 4.49666,-3.974763 0.85252,-0.300742 0.89283,-0.30647 2.13889,-0.303941 1.21176,0.0025 1.30689,0.01531 2.07433,0.280178 2.12193,0.732342 3.57915,2.224301 4.10669,4.204578 0.2173,0.815723 0.18242,2.127167 -0.0806,3.029087 -0.77958,2.673546 -2.93416,4.989136 -5.28704,5.682147 -0.48128,0.14176 -1.56982,0.23282 -1.99874,0.1672 z m 3.99522,-1.91993 c 1.34154,-0.687251 2.18842,-2.416436 2.28837,-4.672504 0.05,-1.128826 -0.0609,-1.759475 -0.45072,-2.562673 -0.51906,-1.069482 -2.47452,-2.52951 -4.00161,-2.987767 -1.35706,-0.407232 -3.42081,-0.04034 -4.78464,0.850599 -1.42702,0.932229 -2.16895,2.288381 -2.16895,3.964574 0,0.810223 0.15075,1.476547 0.52184,2.306473 0.27102,0.606122 0.39873,0.725538 0.59975,0.560812 0.10217,-0.08372 0.11113,-0.313893 0.055,-1.412352 -0.0768,-1.504006 -0.014,-1.981428 0.3666,-2.786692 0.34099,-0.721435 1.18636,-1.565726 1.9346,-1.932127 1.03659,-0.507605 2.60852,-0.678136 3.67952,-0.399175 1.03711,0.270132 2.48298,1.308473 2.84284,2.041556 0.16623,0.338638 0.19977,0.533884 0.19397,1.129105 -0.008,0.852692 -0.40678,2.480045 -0.7712,3.149598 -0.34283,0.629898 -1.02414,1.277168 -1.68867,1.604317 -0.48795,0.240219 -0.66758,0.283751 -1.17083,0.283751 -0.49944,0 -0.65929,-0.03812 -1.00018,-0.238494 -0.63606,-0.373881 -0.9432,-0.857986 -1.42407,-2.244613 -0.39626,-1.14264 -0.29564,-1.99829 0.3195,-2.716942 0.73965,-0.864118 1.9821,-0.970138 2.63637,-0.224965 0.53509,0.609427 0.53308,1.201962 -0.006,1.721759 -0.33464,0.322778 -0.63767,0.443589 -1.11262,0.443589 -0.52579,0 -0.68065,-0.199728 -0.61888,-0.798194 0.062,-0.600457 -0.0826,-0.759297 -0.40117,-0.440732 -0.18566,0.185662 -0.21523,0.289624 -0.21523,0.756776 0,1.282226 0.57752,1.82578 1.84122,1.732932 0.87885,-0.06457 1.76074,-0.576598 1.97819,-1.148545 0.31468,-0.827666 -0.27628,-2.37314 -1.30852,-3.421996 -0.63445,-0.644675 -0.94375,-0.773684 -1.7407,-0.726062 -0.7432,0.04441 -1.18208,0.235032 -1.75323,0.761499 -1.2937,1.192492 -1.80721,3.708233 -1.12766,5.524503 0.32414,0.866352 1.10554,1.425698 2.54234,1.819878 0.96207,0.26394 1.54621,0.334174 2.57402,0.309486 0.81594,-0.0196 0.98576,-0.05025 1.37056,-0.247374 z m -13.33322,1.51144 c -0.74905,-0.17025 -1.40175,-0.488472 -2.10326,-1.025434 -0.81265,-0.622037 -0.948,-1.176425 -0.72575,-1.593535 3.84739,-7.220709 0.71237,0.138366 1.18204,0.721619 0.57204,0.710387 0.92839,0.45472 1.45323,0.454511 0.48662,-1.94e-4 0.6317,-0.03776 0.98084,-0.254 0.56181,-0.347948 0.83393,-0.856214 0.77603,-1.449468 -0.12113,-1.241018 -1.11619,-1.979304 -2.66771,-1.979304 -0.46413,0 -1.69831,2.965329 -1.76188,2.901769 -0.15332,-0.153324 0.79264,-3.442087 1.07079,-4.581187 0.48708,-0.685281 -0.16455,-0.683509 0.70798,-2.156787 0.13664,-0.230725 1.19012,-1.413832 1.39758,-1.415138 0.72131,-0.0045 1.53407,-0.807498 3.28065,-2.201113 1.67733,-1.338358 2.95434,-1.94483 3.8763,-1.840912 0.39852,0.04492 0.82644,0.226451 0.8732,0.370428 0.0371,0.114074 -0.49633,0.3459 -1.62671,0.707014 -1.43067,0.45705 -2.0186,0.895054 -3.44058,2.563215 -1.21274,1.422703 -1.68267,1.882086 -2.18639,2.137342 -0.6788,0.343974 -0.91249,0.59172 -1.02265,1.08418 -0.1625,0.726381 -0.11486,0.831572 0.46896,1.035537 0.77115,0.269413 1.05789,0.446404 1.56633,0.966812 0.8197,0.838996 1.29851,2.081642 1.30708,3.392173 0.006,0.866953 -0.1281,1.266032 -0.55906,1.668031 -0.55756,0.520077 -1.79115,0.734227 -2.84702,0.494247 z M 92.254438,97.353357 c -0.441646,-0.08944 -0.867717,-0.293947 -1.058333,-0.507989 -0.141033,-0.158366 -0.168472,-0.305356 -0.16418,-0.879519 0.005,-0.668551 0.02825,-0.745961 0.769701,-2.562733 1.048874,-2.570038 1.693825,-3.486132 2.84954,-4.047511 1.471028,-0.71454 3.021939,5.05e-4 3.021939,1.39326 0,1.273175 -1.686044,4.527198 -2.93913,5.672448 -0.772496,0.706018 -1.760936,1.077567 -2.479537,0.932044 z m 0.985267,-1.435319 c 0.715591,-0.32494 1.380037,-1.104236 2.011615,-2.359324 0.396842,-0.788613 0.813118,-2.028675 0.813118,-2.422228 0,-0.557027 -0.470172,-0.798936 -1.010119,-0.519719 -0.380411,0.196718 -0.655437,0.586259 -1.282566,1.816601 -0.322333,0.632375 -0.814069,1.587923 -1.092746,2.12344 -0.525959,1.010705 -0.621282,1.397636 -0.361069,1.465637 0.308386,0.08059 0.582818,0.0495 0.921767,-0.104407 z m 28.140065,1.241137 c -0.28475,-0.146043 -0.33192,-0.577119 -0.0897,-0.819375 0.50666,-0.506658 1.33194,0.116775 0.87282,0.659351 -0.19383,0.229072 -0.51899,0.295513 -0.78316,0.160024 z m 9.35566,-3.278869 c -0.88534,-0.20159 -1.95646,-0.597676 -2.62049,-0.969023 -1.00963,-0.564618 -1.95975,-1.380115 -1.79726,-1.542605 0.0276,-0.0276 0.49948,0.05421 1.04863,0.18179 0.54915,0.127584 1.36041,0.250694 1.80279,0.273579 1.29004,0.06673 2.01715,-0.188299 3.95531,-1.387327 1.14157,-0.706222 1.75652,-0.958851 2.48211,-1.019682 0.96854,-0.0812 2.21278,0.41164 2.6275,1.040739 0.21856,0.331534 0.21797,1.003408 -10e-4,1.362845 -0.48755,0.799603 -2.13248,1.618467 -4.14549,2.063682 -0.95089,0.210306 -2.4184,0.208555 -3.3519,-0.004 z M 65.544043,92.599679 c 0.251253,-0.43103 1.584421,-2.028717 2.350499,-2.81687 l 0.914647,-0.941001 -0.03124,1.185333 c -0.04242,1.609385 -0.26509,2.099189 -1.120329,2.464364 -0.454821,0.194203 -2.216271,0.284355 -2.113574,0.108174 z M 144.9199,90.492808 c -0.021,-4.375262 -0.74744,-6.71181 -2.55399,-8.215236 -1.45074,-1.207317 -3.72698,-1.868356 -5.55461,-1.613102 -1.79299,0.250417 -2.9628,1.030894 -4.75504,3.172501 -1.71696,2.051651 -2.65066,2.771647 -4.07854,3.145025 -0.55117,0.144126 -2.03848,0.146383 -2.26976,0.0034 -0.0635,-0.03923 0.1233,-0.171182 0.4934,-0.348547 0.85508,-0.409786 1.54753,-0.903508 2.3618,-1.683974 0.85479,-0.819306 1.44516,-1.565949 2.74934,-3.477111 1.20212,-1.761605 1.7783,-2.454116 2.57535,-3.095311 1.76996,-1.423855 3.8801,-1.638746 6.10506,-0.62172 2.66517,1.218246 4.88244,4.574504 5.53197,8.373698 0.31021,1.814442 0.12289,3.965349 -0.43773,5.026332 l -0.16257,0.307668 z m -21.2753,0.416552 c -0.22663,-0.132004 -0.1979,-0.678975 0.0478,-0.909794 0.23134,-0.217331 0.45736,-0.233826 0.71654,-0.05229 0.26296,0.184183 0.23916,0.507568 -0.0593,0.806045 -0.25823,0.258236 -0.45484,0.30175 -0.70501,0.156039 z m 20.61196,-1.530957 c -0.69065,-2.464709 -1.9136,-4.782626 -3.19138,-6.04881 -0.83744,-0.82984 -1.50008,-1.152087 -2.47416,-1.203213 -1.77633,-0.09323 -2.74232,0.477827 -4.54513,2.686943 -1.88174,2.30584 -2.76244,2.851517 -5.21302,3.229981 -0.94774,0.146366 -2.63169,0.06065 -3.2598,-0.165933 -0.27813,-0.100332 -0.54483,-0.225261 -0.59266,-0.27762 -0.0631,-0.06907 -0.0405,-0.07805 0.0824,-0.03273 0.0931,0.03436 0.70544,0.08341 1.36068,0.108996 1.44572,0.05646 2.16103,-0.07555 3.18405,-0.587581 0.75777,-0.379277 1.79394,-1.329199 2.5666,-2.352964 2.03811,-2.700468 3.14336,-3.39861 5.377,-3.39644 1.14024,0.0011 2.25633,0.245907 3.13927,0.688554 0.73838,0.370177 1.93567,1.584243 2.43196,2.466046 0.71287,1.266607 1.221,3.069746 1.33864,4.75034 0.0318,0.454025 0.0424,0.8255 0.0235,0.8255 -0.0189,0 -0.12142,-0.310983 -0.22793,-0.691072 z M 71.565926,87.449256 c -0.412232,-0.08961 -0.763096,-0.176501 -0.779697,-0.193102 -0.08836,-0.08836 3.111331,-1.916374 3.37071,-1.925724 0.10195,-0.0037 0.07352,0.431669 -0.06223,0.952836 -0.137148,0.526548 -0.409669,1.000377 -0.668235,1.161854 -0.280286,0.175042 -1.066253,0.176789 -1.86055,0.0041 z m 30.074794,-1.191275 c -0.2122,-0.123924 -0.27147,-0.491682 -0.11719,-0.727138 0.2709,-0.413457 0.97557,-0.18231 0.97557,0.320009 0,0.394295 -0.4858,0.624713 -0.85838,0.407129 z M 65.510926,85.654676 c -1.143209,-0.20748 -2.043154,-1.211762 -2.043154,-2.280032 0,-0.902999 0.69781,-2.199691 1.552036,-2.884043 1.386085,-1.110443 3.211858,-1.637584 5.644631,-1.629728 3.025738,0.0098 5.374944,0.570902 8.89,2.123469 1.217458,0.53774 1.809106,0.918021 1.570642,1.009528 -0.08215,0.03152 -0.497725,0.01161 -0.923502,-0.04425 -1.868401,-0.245124 -3.267098,-0.354861 -3.906807,-0.306516 -1.852212,0.13998 -3.752495,0.870182 -6.387485,2.454453 -2.268834,1.364122 -3.349937,1.74703 -4.396361,1.557116 z M 121.0411,85.497475 c -0.22135,-0.221356 -0.22957,-0.765904 -0.0145,-0.960545 0.54785,-0.495795 1.33087,0.324697 0.8987,0.941706 -0.1723,0.245994 -0.64693,0.256107 -0.8842,0.01884 z m -29.294662,-0.254 c -0.348231,-0.348232 -0.121774,-0.931334 0.3617,-0.931334 0.238541,0 0.484967,0.269658 0.484967,0.530688 0,0.188148 -0.366092,0.569979 -0.546485,0.569979 -0.07197,0 -0.207048,-0.0762 -0.300182,-0.169333 z m 12.631852,-0.136656 c -0.054,-0.134389 -0.17682,-0.587244 -0.27289,-1.006344 -0.32403,-1.413612 -0.83537,-2.225117 -2.29868,-3.648048 -1.837543,-1.786829 -3.763957,-2.930284 -7.894715,-4.686039 -1.956095,-0.831426 -2.623532,-1.219706 -3.35641,-1.952584 -1.781795,-1.781795 -2.01638,-4.840645 -0.583931,-7.614113 0.979413,-1.896312 2.502014,-3.452575 4.295538,-4.390504 0.801518,-0.419156 2.363276,-1.004561 2.449625,-0.918212 0.02362,0.02362 -0.44921,0.289555 -1.050725,0.590974 -1.153687,0.578114 -2.541916,1.548013 -3.119635,2.179561 -1.147192,1.254084 -2.045989,3.190384 -2.246534,4.83976 -0.229698,1.889145 0.40479,3.532133 1.916725,4.963306 0.889357,0.84185 1.58803,1.20516 3.452576,1.795337 2.41705,0.76506 3.91303,1.43978 5.406546,2.438474 1.00165,0.669791 1.70453,1.322304 2.15468,2.000275 0.34298,0.516561 0.95335,2.067875 1.22657,3.117416 0.19269,0.740218 0.24627,1.974774 0.10125,2.333074 l -0.0818,0.202011 z m -2.17552,-1.913726 c -2.358523,-1.624003 -3.61724,-2.033676 -7.492998,-2.438741 -2.78502,-0.291068 -3.599284,-0.480215 -4.910667,-1.140703 -2.24035,-1.128369 -3.768272,-2.979384 -4.403376,-5.334507 -0.259158,-0.961023 -0.319936,-2.691711 -0.132312,-3.767667 0.55874,-3.204177 2.955745,-6.961724 5.664056,-8.878979 1.21956,-0.863346 3.143256,-1.623027 4.744822,-1.873764 1.038028,-0.162511 3.948418,-0.08671 3.469728,0.09037 -0.09523,0.03523 -0.855213,0.201343 -1.688861,0.369148 -2.14614,0.431998 -2.678905,0.610564 -3.809305,1.276762 -2.214685,1.305219 -3.818369,3.084403 -4.69103,5.204396 -1.120944,2.72316 -0.810707,5.410393 0.842849,7.300657 0.837645,0.957554 2.03048,1.665676 4.533096,2.691058 3.149846,1.290567 5.224362,2.545406 7.017788,4.244939 0.9799,0.928601 1.66701,1.864827 1.86981,2.54775 0.0709,0.238587 0.11943,0.441303 0.10795,0.450479 -0.0115,0.0092 -0.51618,-0.324362 -1.12155,-0.741198 z m 21.48271,0.554489 c -0.0616,-0.0248 0.1006,-0.17832 0.381,-0.360581 0.59159,-0.384535 1.14815,-0.932327 1.42197,-1.399554 0.39632,-0.676272 0.46244,-1.18381 0.4472,-3.432639 -0.013,-1.922542 -6e-4,-2.115204 0.16976,-2.632869 0.23546,-0.71545 0.63467,-1.230607 1.23069,-1.588155 1.16191,-0.697018 2.30626,-0.939918 3.06429,-0.650426 0.8462,0.323167 1.14093,0.825049 0.92047,1.567422 -0.0942,0.317231 -0.29636,0.602237 -0.86891,1.225021 -0.82215,0.894289 -1.24398,1.570235 -1.86819,2.993644 -1.0571,2.41051 -1.89067,3.511302 -3.09766,4.090703 -0.41793,0.200623 -0.61308,0.242687 -1.10067,0.237242 -0.32596,-0.0036 -0.64094,-0.02605 -0.69995,-0.04981 z m -16.61586,-0.198923 c -0.1439,-0.143895 -0.1736,-0.244962 -0.13245,-0.450703 0.07,-0.350036 0.22037,-0.488117 0.54149,-0.497247 0.35086,-0.01 0.52378,0.148817 0.52378,0.48101 0,0.500439 -0.59932,0.800439 -0.93282,0.46694 z m -10.327848,-0.08318 c -0.202936,-0.202935 -0.219582,-0.530323 -0.03629,-0.713619 0.374896,-0.374896 1.077693,0.159078 0.88308,0.67095 -0.06497,0.170882 -0.138487,0.212002 -0.379032,0.212002 -0.18554,0 -0.362484,-0.06405 -0.467762,-0.169333 z m -10.075333,-0.21614 c -1.28465,-0.275474 -2.410624,-0.829296 -3.112624,-1.530976 -0.612176,-0.611897 -0.808665,-1.089606 -0.761434,-1.851218 0.114872,-1.85238 1.38969,-1.941017 3.970568,-0.27607 1.039961,0.670888 2.45201,1.476655 3.087002,1.761557 0.840942,0.377305 1.548296,0.570326 3.117652,0.850737 0.795209,0.142088 1.474673,0.286331 1.509918,0.320542 0.08512,0.08262 -2.340208,0.573008 -3.616865,0.731315 -1.263051,0.15662 -3.450701,0.153549 -4.194217,-0.0059 z m 30.225991,-0.492433 c 0,-0.01987 0.14793,-0.279611 0.32873,-0.57721 0.49199,-0.809839 0.9803,-1.821177 1.1779,-2.439551 0.35305,-1.1049 0.39146,-1.480183 0.35524,-3.471333 -0.0898,-4.937638 -0.0723,-5.115896 0.64637,-6.579237 0.84966,-1.73006 2.44255,-2.88849 4.50728,-3.277921 0.89544,-0.168888 2.48034,-0.171634 3.43047,-0.0059 3.48153,0.607126 6.90765,3.044814 8.17639,5.817498 0.4363,0.953492 0.37698,0.970646 -0.22862,0.06611 -0.86212,-1.287681 -1.6973,-2.018823 -3.12908,-2.739309 -1.05417,-0.53047 -1.76042,-0.686498 -3.07268,-0.678827 -0.88925,0.0052 -1.29336,0.04723 -1.82033,0.189349 -1.56105,0.420996 -3.21931,1.456405 -4.01022,2.503967 -0.77742,1.029681 -1.06414,1.74073 -1.6669,4.133854 -0.69183,2.746734 -1.20332,3.759132 -2.65571,5.256428 -0.64518,0.66513 -2.03884,1.896982 -2.03884,1.802127 z m 2.24278,-0.921261 c 1.23384,-1.248008 1.95519,-2.322566 2.46071,-3.665594 0.1064,-0.282688 0.36558,-1.217194 0.57595,-2.076679 0.5479,-2.238485 0.91715,-3.205515 1.56148,-4.089416 0.68233,-0.936035 2.21291,-1.895239 3.61542,-2.265761 0.98163,-0.259332 2.54865,-0.261372 3.45519,-0.0045 1.18,0.334363 2.16625,0.941666 3.06924,1.889948 0.44608,0.468455 1.03751,1.212984 1.26232,1.589082 0.0841,0.14074 0.12584,0.164891 -0.9043,-0.523448 -2.0103,-1.343278 -4.14711,-2.101761 -5.95112,-2.112415 -1.51594,-0.009 -2.56565,0.405553 -3.56292,1.406905 -1.02238,1.026577 -1.45101,1.967383 -1.99081,4.36971 -0.18311,0.814917 -0.39429,1.672167 -0.46928,1.905 -0.37012,1.149062 -1.20795,2.357138 -2.39466,3.45289 -0.50103,0.462622 -1.29542,0.989573 -1.49443,0.991315 -0.0499,4.37e-4 0.29532,-0.38973 0.76721,-0.867039 z m -5.74332,0.543667 c -0.18598,-0.20551 -0.17821,-0.631117 0.0147,-0.805711 0.33674,-0.30474 0.86117,-0.06 0.86117,0.40189 0,0.493478 -0.56077,0.752017 -0.87588,0.403821 z m -3.27279,-0.977685 c 0,-0.02079 0.12982,-0.341112 0.28849,-0.711814 0.46851,-1.094608 0.71876,-1.846535 0.81496,-2.448756 0.24904,-1.558904 -0.5373,-4.039849 -1.93601,-6.108271 -0.30385,-0.449335 -0.86167,-1.275804 -1.2396,-1.836596 -0.75939,-1.126816 -1.33863,-2.256971 -1.53206,-2.989165 -0.17358,-0.657047 -0.17089,-1.829469 0.006,-2.440849 0.2217,-0.768013 0.63064,-1.461869 1.19556,-2.028514 1.49139,-1.495947 4.05761,-1.891248 6.46289,-0.995548 0.569,0.211889 1.92393,1.020511 1.84396,1.100477 -0.0178,0.01785 -0.2663,-0.05918 -0.55211,-0.171188 -0.87407,-0.342543 -1.62424,-0.47259 -2.72612,-0.47259 -1.82153,0 -3.07265,0.407289 -4.06049,1.321856 -0.89931,0.832605 -1.24977,1.876829 -0.98143,2.924273 0.17658,0.689243 0.41382,1.101896 1.56146,2.71595 1.49538,2.103133 2.12522,3.259555 2.47074,4.536436 0.22512,0.831919 0.31012,2.669583 0.1696,3.666447 -0.19388,1.375426 -0.74267,2.947207 -1.23148,3.527112 -0.21146,0.250867 -0.55395,0.504816 -0.55395,0.41074 z m -3.61315,-1.331105 c -0.17068,-1.083968 -1.13778,-2.673498 -2.21136,-3.634592 -1.11359,-0.996916 -2.12876,-1.469422 -4.926232,-2.292889 -1.949979,-0.574 -2.799343,-0.965785 -3.421145,-1.578069 -0.698655,-0.68796 -0.978459,-1.443478 -0.812248,-2.193212 0.319819,-1.442615 1.750103,-1.860773 3.262178,-0.953731 0.265082,0.159014 1.039486,0.822517 1.720897,1.47445 0.92827,0.888116 1.56113,1.40399 2.52388,2.057357 1.46214,0.992268 2.34013,1.764905 2.837,2.496581 0.47038,0.692658 1.03568,1.913193 1.26323,2.727395 0.30569,1.093779 0.25734,2.497667 -0.086,2.497667 -0.0306,0 -0.0981,-0.270431 -0.15019,-0.600957 z m 3.31715,-0.288043 c -0.39592,-2.287272 -1.07699,-3.775849 -2.31846,-5.067267 -0.69968,-0.727828 -1.54931,-1.390644 -3.21948,-2.511596 -1.76815,-1.186709 -2.38637,-1.823652 -2.97206,-3.062111 -0.40079,-0.84745 -0.53572,-1.623665 -0.48868,-2.811092 0.0474,-1.19709 0.29891,-2.056943 0.92296,-3.155583 1.42626,-2.510947 4.89863,-4.153546 8.41405,-3.980247 3.16326,0.155938 6.85734,2.017344 8.25214,4.158164 0.34158,0.524281 0.72538,1.38444 0.65094,1.458877 -0.0201,0.02009 -0.60314,-0.509715 -1.29566,-1.177344 -1.30575,-1.258805 -1.80441,-1.618169 -3.03311,-2.18583 -1.05892,-0.489224 -1.80858,-0.679571 -2.88972,-0.733732 -1.15063,-0.05764 -1.95611,0.09676 -2.97394,0.570095 -2.22422,1.034346 -3.49786,3.103889 -3.23277,5.252953 0.14517,1.176826 0.55799,2.023459 2.17835,4.4674 1.27742,1.926696 2.04326,3.3704 2.4778,4.67098 0.42966,1.285986 0.37206,2.360382 -0.20925,3.902504 l -0.20449,0.542495 z m 4.47268,-0.667651 c 0.0291,-0.343925 0.15363,-1.055073 0.2768,-1.580328 0.3293,-1.404325 0.28693,-1.725456 -0.46098,-3.494095 -0.82748,-1.956825 -1.03864,-2.6498 -1.09183,-3.583186 -0.0525,-0.92057 0.12634,-1.630793 0.61513,-2.443407 0.4079,-0.678122 0.66749,-0.936727 1.20357,-1.199009 0.55223,-0.270177 1.01443,-0.242445 1.59102,0.09546 0.46149,0.270453 0.67525,0.676704 0.6008,1.141853 -0.0264,0.165199 -0.25561,0.719462 -0.50928,1.231695 -0.25366,0.512234 -0.52377,1.159934 -0.60025,1.439334 -0.20789,0.759468 -0.25787,2.268474 -0.12059,3.640666 0.29859,2.984348 0.0175,4.397274 -1.0231,5.1435 -0.50166,0.359738 -0.54209,0.326771 -0.48129,-0.392483 z M 81.205306,77.818346 c -0.340946,-0.261858 -2.395337,-1.203907 -3.259534,-1.494673 -0.48895,-0.164511 -1.627474,-0.51258 -2.530054,-0.773487 -0.90258,-0.260907 -1.967912,-0.587631 -2.367405,-0.726053 -2.190446,-0.758976 -3.251591,-1.749553 -3.115651,-2.908456 0.07306,-0.622795 0.448247,-1.303402 0.888957,-1.612589 0.342162,-0.240048 0.415808,-0.256914 1.099605,-0.251827 0.626658,0.0047 0.824918,0.04447 1.367882,0.274682 0.843691,0.357711 1.770216,0.961122 2.589458,1.686419 1.234417,1.092861 3.796787,3.570752 4.37894,4.23457 0.509343,0.580794 1.209522,1.608845 1.14184,1.676527 -0.01366,0.01366 -0.100978,-0.03364 -0.194038,-0.105113 z m 2.571192,-2.546585 C 82.206616,73.643548 81.191606,72.12126 80.70374,70.66331 c -0.458921,-1.371451 -0.628164,-3.479908 -0.357184,-4.449853 0.251602,-0.900581 0.845986,-1.612162 1.515049,-1.813777 0.683327,-0.205912 1.371342,0.272439 1.626199,1.130636 0.161651,0.544338 0.164337,1.19384 0.0099,2.398826 -0.317914,2.480802 -0.2453,4.098647 0.261406,5.824196 0.418544,1.42532 0.551994,1.935676 0.515651,1.972019 -0.01706,0.01706 -0.241289,-0.187056 -0.498281,-0.453596 z"
       id="path1"
       sodipodi:nodetypes="cssccsssssssccsssccsscscssccsccccsssscsscscssssssssscsssscssscssssssssscssssssssssssccccscssscsscssscsssssscssscsssccscscsscccsssssssscsscscccscscssssccsssscssscsssccscssssccssscsssssssssssscscsssssssccssscsscsssssssscssccsssccsccsssssssssssscssscssssssssssssscsssssssscsscccssscccsssssssscssssscsscssccscssscssssssssssssssssssssscssssssssssccsscccssccssssssssssscsscssssccssccsscscccssscsssscsssscscsssscscsssscccssscsssccsssssssscccssssssssssssssssssssssssssccssssssssssssssssssssscssccccsscccscsscscccssssssscsssscssssssscscssssssssssccsssssssscsscsscssscsscssssssssssssssssssccscccssssssscsccsscssssssssscssssssscssssssscsssssscsssssssscccscssccssssssscssssssssssssssssssssssssssssssssccssssssssssssssscssssscssssssscsssscsssssssscsssssssccssccsscssssssssssssssssscscsscssssccscccscssscsscssssssssccssssssssssssssssccssssssscsssscscsscssscsscscsssscsccsssscsssscsscc" /></g></svg>
