<?xml version="1.0" encoding="UTF-8" standalone="no"?>
<!-- Created with Inkscape (http://www.inkscape.org/) -->

<svg
   version="1.1"
   id="svg1"
   width="2285.4417"
   height="2285.4907"
   viewBox="0 0 2285.4417 2285.4907"
   sodipodi:docname="maze.svg"
   inkscape:version="1.4.2 (ebf0e940, 2025-05-08)"
   xmlns:inkscape="http://www.inkscape.org/namespaces/inkscape"
   xmlns:sodipodi="http://sodipodi.sourceforge.net/DTD/sodipodi-0.dtd"
   xmlns="http://www.w3.org/2000/svg"
   xmlns:svg="http://www.w3.org/2000/svg">
  <defs
     id="defs1" />
  <sodipodi:namedview
     id="namedview1"
     pagecolor="#ffffff"
     bordercolor="#000000"
     borderopacity="0.25"
     inkscape:showpageshadow="2"
     inkscape:pageopacity="0.0"
     inkscape:pagecheckerboard="0"
     inkscape:deskcolor="#d1d1d1"
     inkscape:zoom="0.1287597"
     inkscape:cx="1405.7193"
     inkscape:cy="1091.1799"
     inkscape:window-width="1440"
     inkscape:window-height="752"
     inkscape:window-x="0"
     inkscape:window-y="30"
     inkscape:window-maximized="1"
     inkscape:current-layer="g1">
    <inkscape:page
       x="0"
       y="0"
       inkscape:label="1"
       id="page1"
       width="2285.4417"
       height="2285.4907"
       margin="0"
       bleed="0" />
  </sodipodi:namedview>
  <g
     id="g1"
     inkscape:groupmode="layer"
     inkscape:label="1"
     transform="translate(-497.2789,-497.25601)">
    <path
       id="path5"
       d="m 499.84665,1717.9467 c -0.0267,-0.027 -0.0267,-0.027 -0.0267,-0.027 1.476,22.4667 3.66266,44.88 6.50533,67.16 0.0267,0.027 0.0267,0.027 0.0547,0.027 5.02933,39.72 12.164,79.16 21.40266,118.1333 1.88534,7.9867 3.85334,15.9334 5.90267,23.8934 0.656,2.48 1.312,4.9733 1.996,7.4533 0.90133,3.3867 1.804,6.76 2.73333,10.0933 0.656,2.3734 1.312,4.72 1.996,7.08 0.38134,1.3867 0.81867,2.84 1.20134,4.2534 12.54666,43.6533 27.716,86.52 45.40133,128.3333 -0.028,0 -0.028,0.027 -0.0547,0.027 7.62667,18.12 15.77067,36.08 24.38133,53.7733 1.23067,2.5333 2.46,5.0533 3.716,7.5733 v 0.013 c 12.76534,25.84 26.51467,51.1733 41.19334,75.96 9.83866,16.6 20.116,32.8933 30.74933,48.9866 1.36667,2.08 2.73333,4.16 4.15467,6.2267 3.06133,4.6267 6.20533,9.1867 9.40266,13.76 1.09334,1.5867 2.21467,3.16 3.33334,4.7733 0,0 0.0293,0 0.0293,-0.027 26.10267,37.32 54.392,73.04 84.73333,106.9866 7.46133,-7.08 14.924,-14.16 22.38533,-21.24 -29.21866,-32.72 -56.49733,-67.1333 -81.67199,-103.04 -5.74,-8.2 -11.37067,-16.4533 -16.892,-24.7733 -5.05734,-7.6533 -10.05867,-15.3867 -14.924,-23.1467 -19.78934,-31.4933 -37.93867,-63.96 -54.476,-97.28 -10.00267,-20.1466 -19.37867,-40.5866 -28.12667,-61.3066 C 597.86399,2031.32 583.21332,1990 570.99599,1947.9867 c -2.65067,-9.16 -5.16534,-18.3467 -7.59867,-27.56 -0.10933,-0.4533 -0.24533,-0.8933 -0.328,-1.3333 -11.72533,-45.04 -20.58133,-90.8267 -26.54133,-136.9734 -2.89734,-22.2933 -5.084,-44.7066 -6.61334,-67.12 -2.92533,-43.52 -3.308,-87.2533 -1.06666,-130.8266 0.492,-9.9734 1.148,-19.9467 1.94,-29.8934 3.608,-46.5333 10.11333,-92.8533 19.572,-138.56 4.45466,-22.0533 9.62,-43.92 15.49733,-65.6533 11.26133,-42.0133 25.03733,-83.3066 41.21866,-123.68 3.71867,-9.2933 7.57067,-18.5066 11.53467,-27.6933 15.444,-35.72 32.772,-70.6267 51.90533,-104.4933 3.90934,-6.8667 7.84534,-13.72 11.91867,-20.5334 11.452,-19.32 23.50533,-38.3466 36.16,-56.9333 24.328,-35.85334 50.76,-70.26667 79.13066,-103.04001 6.53334,-7.57333 13.176,-15.04 19.9,-22.41333 19.92667,-21.81333 40.672,-42.84 62.264,-63 12.684,-11.84 25.63867,-23.4 38.896,-34.64 17.10933,-14.6 34.68667,-28.64 52.67067,-42.2 34.52262,-25.96 70.54802,-49.93333 107.80262,-71.74666 8.6374,-5.06667 17.3294,-10.01333 26.076,-14.81333 17.1387,-9.41334 34.5227,-18.4 52.1267,-26.93334 24.7067,-11.93333 49.8547,-22.98666 75.384,-33.04 20.9093,-8.25333 42.0667,-15.90666 63.44,-22.88 40.9947,-13.36 82.768,-24.38666 125.048,-32.90666 4.4,23.64 8.8267,47.30666 13.2933,70.96 -38.52,7.73333 -76.5733,17.65333 -113.9586,29.68 3.4426,9.58666 6.9146,19.16 10.332,28.72 20.8,-6.69334 41.7866,-12.73334 62.9466,-18.09334 15.3334,-3.85333 30.72,-7.37333 46.2,-10.52 9.8134,-1.98666 19.6534,-3.82666 29.4534,-5.52 40.7066,-6.97333 81.7866,-11.42666 123,-13.33333 22.4533,-1.06667 44.9733,-1.4 67.4666,-0.90667 14.2134,0.26667 28.4534,0.85334 42.64,1.74667 23.32,1.48 46.5467,3.74667 69.72,6.84 l -10.5733,71.74666 c -33.4267,-4.37333 -67.0533,-7.02666 -100.72,-7.84 -22.4667,-0.54666 -44.9867,-0.30666 -67.4667,0.78667 -20.7733,0.96 -41.5066,2.65333 -62.1733,5.05333 -16.2667,1.89334 -32.5067,4.21334 -48.6267,6.94667 -9.8666,1.66667 -19.68,3.49333 -29.44,5.49333 -33.1066,6.69334 -65.8266,15.22667 -97.9866,25.48 -21.44,6.8 -42.6174,14.4 -63.5,22.76 -12.7374,5.06667 -25.3387,10.44 -37.8574,16.08 -21.3466,9.66667 -42.3386,20.10667 -62.8933,31.34667 -6.452,-11.42667 -12.928,-22.88 -19.4067,-34.30667 -5.3026,-9.4 -10.6333,-18.8 -15.9626,-28.2 36.1346,-19.82666 73.444,-37.4 111.7386,-52.65333 -3.472,-9.58667 -6.9146,-19.21333 -10.388,-28.8 -16.2893,6.42667 -32.416,13.28 -48.3786,20.54667 -23.124,10.53333 -45.8387,21.92 -68.1147,34.17333 -8.7733,4.77333 -17.4653,9.70667 -26.076,14.78667 -33.948,19.89333 -66.748,41.73333 -98.236,65.32 -18.01332,13.47999 -35.58799,27.55999 -52.67066,42.17333 -6.36933,5.41333 -12.60133,10.88 -18.80666,16.44 -25.72,23.06666 -50.26534,47.38666 -73.52667,72.86666 -6.75066,7.37334 -13.36533,14.86667 -19.89733,22.44 -25.748,29.90667 -49.80267,61.25331 -71.96933,93.92001 8.60933,5.44 17.22,10.88 25.83066,16.32 21.31867,-31.2 44.388,-61.2267 69.06933,-89.88001 1.176,-1.38667 2.37867,-2.78667 3.58267,-4.14667 5.35733,-6.18666 10.796,-12.30666 16.31733,-18.32 27.77067,-30.33333 57.37334,-58.95999 88.64267,-85.69333 17.08269,-14.65333 34.63069,-28.66666 52.64399,-42.14666 24.572,-18.36 49.992,-35.61333 76.096,-51.70667 5.9853,-3.66666 12.0267,-7.30666 18.0667,-10.82666 11.7813,20.82666 23.5893,41.65333 35.3693,62.47999 -29.164,17.16 -57.3733,35.89334 -84.5427,56.06667 6.3974,8 12.792,15.93333 19.216,23.90667 21.292,-15.76 43.268,-30.64 65.8747,-44.52 4.8093,-2.97334 9.6733,-5.90667 14.54,-8.77334 8.636,-5.05333 17.3293,-10 26.104,-14.78666 31.0773,-16.97334 63.1387,-32.14667 95.9947,-45.34667 20.828,-8.42666 42.0066,-16.05333 63.4333,-22.88 17.4133,-5.54666 34.96,-10.57333 52.68,-15.05333 13.44,-3.42667 26.9733,-6.50667 40.5333,-9.26667 9.7867,-2.02666 19.6267,-3.86666 29.4667,-5.53333 34.96,-5.92 70.2667,-9.77333 105.6933,-11.58667 22.4667,-1.12 45,-1.44 67.4934,-0.86666 11.5066,0.26666 23.0133,0.76 34.4933,1.46666 20.52,1.29334 41,3.28 61.3867,5.96 l -10.5467,71.76 c -27.96,-3.66666 -56.0933,-5.88 -84.2667,-6.70666 0.1334,9.39999 0.2667,18.81333 0.4,28.21333 0,0.62666 0.027,1.25333 0.027,1.88 11.84,0.33333 23.68,0.93333 35.5067,1.81333 14.7066,1.09333 29.3333,2.56 43.9333,4.48 h 0.027 c 9.8933,1.28 19.8133,2.73333 29.6533,4.4 29.28,4.89333 58.2533,11.45333 86.76,19.54667 21.64,6.09333 43.0133,13.14666 64.0933,21.06666 24.8667,9.34667 49.28,19.93334 73.12,31.65334 8.96,4.4 17.84,8.98666 26.6133,13.77333 26.0267,14.05333 51.28,29.52 75.6667,46.38666 17.7333,12.30667 34.9867,25.33338 51.68,39.06668 0.6933,0.5733 1.4,1.1467 2.1067,1.72 20.5333,17 40.1866,35.0133 58.88,53.8933 7,7.1334 13.9066,14.3467 20.6666,21.7334 19.9467,21.7333 38.7067,44.52 56.16,68.28 13.32,18.1466 25.8934,36.7866 37.6667,55.9466 14,22.7467 26.9067,46.2 38.6,70.2267 -2.2133,1.04 -4.4,2.0533 -6.5867,3.0533 -19.5733,9.0267 -39.0933,18.0133 -58.6266,27.04 -1.12,-2.36 -2.2934,-4.7067 -3.48,-7.08 -9.0667,-18.0667 -18.9067,-35.7866 -29.4667,-53.0266 -11.6933,-19.2134 -24.2933,-37.88 -37.72,-55.92 -15.16,-20.4267 -31.4,-40.0534 -48.56,-58.7734 -6.76,-7.3866 -13.64,-14.6266 -20.6933,-21.7066 -16.0534,-16.12 -32.8267,-31.5334 -50.2934,-46.1334 -17.2533,-14.4 -35.1866,-28.04 -53.7066,-40.84 -19.5467,-13.44 -39.8,-25.96 -60.6533,-37.43998 -1.56,-0.88 -3.0934,-1.69333 -4.6534,-2.54666 -8.8,-4.76 -17.68,-9.32 -26.6533,-13.69334 -20.3867,-9.97333 -41.24,-18.97333 -62.48,-26.97333 -3.1733,9.61333 -6.32,19.21333 -9.4267,28.82667 19.6534,7.52 39,15.94666 57.9467,25.21334 8.96,4.3733 17.8133,8.96 26.6133,13.72 20.92,11.3733 41.2267,23.8 60.9067,37.28 14.9733,10.28 29.5733,21.12 43.7333,32.5733 3.3333,2.7334 6.6667,5.4667 9.9733,8.2534 16.1867,13.5866 31.7334,27.92 46.6,42.8933 -17.32,16.5867 -34.68,33.1867 -52.0133,49.7467 -12.2133,-12.16 -24.8933,-23.8934 -38.04,-35.0134 -6.1333,8.0934 -12.2533,16.2134 -18.3733,24.2934 11.8933,10.12 23.3733,20.72 34.4133,31.76 7.0533,7.0533 13.96,14.3066 20.6667,21.7333 12.0266,13.2267 23.48,27.04 34.2666,41.3333 13.5867,17.9067 26.1867,36.6267 37.6934,55.9467 8.04,13.48 15.56,27.28 22.5333,41.36 4.4267,8.9333 8.6267,18.04 12.6267,27.2266 7.08,16.28 13.44,32.88 19.0266,49.7734 2.7334,8.2 5.2667,16.4533 7.64,24.76 3.8,13.36 7.1067,26.84 9.9334,40.4 3.2533,15.52 5.84,31.16 7.84,46.9066 -24.0534,2.4267 -48.0534,4.92 -72.08,7.3467 -1.5334,-11.8667 -3.4667,-23.6667 -5.8134,-35.4 -4.3866,-22.0533 -10.1733,-43.8667 -17.36,-65.2133 -4.3733,-12.96 -9.2666,-25.8 -14.6533,-38.4 -3.9333,-9.16 -8.12,-18.2267 -12.5733,-27.2 -0.027,0 -0.027,-0.027 -0.027,-0.027 -5.28,-10.5733 -10.9067,-20.96 -16.92,-31.1867 -11.3467,-19.44 -23.9467,-38.1066 -37.6933,-55.92 -8.44,-10.9866 -17.3067,-21.6266 -26.5734,-31.8533 -6.6933,-7.4533 -13.5866,-14.6666 -20.68,-21.6933 -8.32,-8.28 -16.9199,-16.24 -25.8133,-23.92 -16.9733,-14.76 -34.9333,-28.4267 -53.68,-40.8933 -10.88,-7.1867 -22.0266,-14.0134 -33.4533,-20.3867 -0.76,-0.4133 -1.56,-0.8533 -2.2933,-1.2533 11.0133,-21.3867 22.0533,-42.76 33.0933,-64.1067 15.8,8.6667 31.1867,18.0133 46.1467,28.1067 5.44,-7.1867 10.8533,-14.36 16.2933,-21.5467 0.68,-0.92 1.3867,-1.88 2.0933,-2.8133 -16.32,-11.0667 -33.2,-21.3734 -50.5333,-30.8534 -0.3867,-0.2266 -0.8267,-0.4133 -1.2,-0.6266 -8.3733,-4.5467 -16.84,-8.92 -25.4267,-13.04 -15.4666,-7.52 -31.24,-14.3734 -47.3066,-20.56 -21,-8.12 -42.4267,-15.12 -64.16,-20.9334 -19.08,-5.1466 -38.4267,-9.3733 -57.92,-12.7066 l 10.5866,-71.78671 c 23.5334,4.05333 46.8667,9.24 69.8667,15.58667 3.1067,-9.54667 6.2267,-19.10667 9.3467,-28.64 -24.6534,-6.78667 -49.64,-12.36 -74.84,-16.57333 -9.8667,-1.66667 -19.76,-3.14667 -29.6667,-4.4 -22.4933,-2.86667 -45.12,-4.69334 -67.7867,-5.49334 -22.4933,-0.82666 -45.0133,-0.57333 -67.4533,0.68 -13.6933,0.77334 -27.3333,1.92 -40.9467,3.48 -11.8666,1.36 -23.64,2.97334 -35.3733,4.92 -9.8667,1.64 -19.68,3.46667 -29.4267,5.49334 -22.3066,4.61333 -44.3066,10.33333 -66.0133,17.02666 -21.48,6.64 -42.6933,14.26667 -63.4933,22.85333 -23.6134,9.74667 -46.716,20.70667 -69.212,32.88 -11.8347,-20.92 -23.6427,-41.8 -35.4787,-62.70666 26.076,-14.16 52.8893,-26.81333 80.2773,-37.93333 20.8534,-8.50667 42.0667,-16.10667 63.52,-22.8 25.4,-7.93334 51.1734,-14.62667 77.2134,-20.01334 9.7866,-2.04 19.6,-3.88 29.44,-5.52 29.2533,-4.94666 58.7466,-8.28 88.4,-9.97333 -0.16,-10.08 -0.3067,-20.2 -0.4667,-30.28 -17.0267,0.84 -34.0267,2.26667 -51,4.17334 -14.24,1.61333 -28.4267,3.61333 -42.5333,5.98666 -9.8667,1.64 -19.68,3.50667 -29.4667,5.49333 -27.68,5.72 -55.08,12.82667 -81.9733,21.29334 -21.4534,6.78666 -42.64,14.41333 -63.4654,22.88 -29.028,11.81333 -57.3733,25.22666 -84.924,40.21333 -8.8013,4.74667 -17.4933,9.66667 -26.104,14.78667 -24.3813,14.34666 -48.024,29.94666 -70.8466,46.75999 -18.1227,13.28 -35.7254,27.33334 -52.7534,42.09338 -1.968,1.6933 -3.936,3.4133 -5.9053,5.1466 -21.5107,19.0134 -42.0107,39.1067 -61.336,60.16 -17.956,-15.88 -35.88799,-31.8 -53.84666,-47.7066 23.91734,-26.0134 49.33736,-50.64004 76.09736,-73.70671 -6.424,-7.98666 -12.82,-15.97333 -19.216,-23.92 -3.3627,2.86667 -6.696,5.76 -10.0054,8.69334 -24.46129,21.63999 -47.75062,44.54666 -69.80796,68.62667 -6.72533,7.36 -13.392,14.8667 -19.87066,22.44 -22.14,25.7467 -42.83067,52.7067 -62.02133,80.72 -10.632,15.52 -20.772,31.3467 -30.448,47.5067 -1.88534,3.1733 -3.772,6.36 -5.63067,9.5333 -18.64133,31.9067 -35.34267,64.9467 -50.02133,98.8133 -3.98934,9.16 -7.81734,18.4 -11.50667,27.6933 -12.572,31.68 -23.36933,64.04 -32.38933,96.92 -3.36133,12.1067 -6.45067,24.2934 -9.29467,36.5467 -2.24,9.6533 -4.31733,19.3467 -6.23066,29.08 -7.188,36.08 -12.3,72.6 -15.224,109.2533 -13.448,-0.8533 -26.89734,-1.72 -40.34534,-2.5733 -10.68666,-0.68 -21.34666,-1.36 -32.03333,-2.0533 3.19733,-40.7467 8.88267,-81.3334 17,-121.3867 3.90933,-19.4267 8.41867,-38.72 13.50267,-57.8533 0.684,-2.6 1.36666,-5.1734 2.10533,-7.7734 9.976,-36.6266 22.03067,-72.7066 36.08,-107.9866 3.69067,-9.2933 7.51733,-18.5067 11.508,-27.6933 16.344,-37.6667 35.01333,-74.2667 55.86933,-109.5734 -8.556,-5.4133 -17.16533,-10.8533 -25.72133,-16.2666 -21.70267,36.84 -41.08133,75 -57.97467,114.2533 -4.01733,9.16 -7.81733,18.4 -11.50666,27.6933 -14.65067,36.7867 -27.196,74.4 -37.52934,112.64 -3.30666,12.1333 -6.368,24.2933 -9.20933,36.5733 -2.24267,9.64 -4.348,19.32 -6.316,29.0534 -8.472,41.7066 -14.432,83.9866 -17.73867,126.4133 -0.82,9.9733 -1.50266,19.96 -1.996,29.9333 -2.07599,39.68 -1.80399,79.48 0.76667,119.1467 1.42,22.44 3.63467,44.8533 6.56,67.16 4.48133,34.6267 10.74133,68.9867 18.724,102.96 1.748,7.3467 3.552,14.68 5.43867,21.9733 2.48666,9.7067 5.13733,19.3467 7.92533,28.9467 11.07067,38.32 24.35467,75.9867 39.77067,112.7733 9.29333,-4.2533 18.55866,-8.4933 27.85333,-12.7333 -4.456,-10.6533 -8.748,-21.3467 -12.848,-32.12 -9.48267,-24.9733 -17.98533,-50.3467 -25.41867,-75.9867 -2.788,-9.5866 -5.44,-19.2133 -7.928,-28.8933 -10.19333,-39.4133 -18.012,-79.48 -23.34266,-119.88 -2.97867,-22.3067 -5.16534,-44.6933 -6.64134,-67.16 -0.21866,-3.5733 -0.43733,-7.1867 -0.628,-10.76 -1.86,-34.4667 -1.94133,-69.0267 -0.24666,-103.52 20.19866,1.2933 40.372,2.5733 60.544,3.8533 3.908,0.2534 7.872,0.52 11.78,0.7734 -1.74934,34.16 -1.55867,68.4133 0.52,102.6 10.03066,-0.9734 20.06133,-1.96 30.09333,-2.9467 -0.164,-2.68 -0.3,-5.36 -0.43734,-8.04 -1.55866,-29.8667 -1.61333,-59.8 -0.164,-89.7067 0.46534,-9.9733 1.09334,-19.9466 1.91334,-29.9333 2.788,-34.9867 7.65333,-69.8 14.51333,-104.2133 3.74533,-19 8.11867,-37.8934 13.12,-56.5867 0.79333,-3.0267 1.61333,-6.04 2.46133,-9.04 8.664,-31.2933 18.996,-62.1067 30.96934,-92.28 3.66133,-9.2933 7.516,-18.5333 11.47866,-27.72 14.104,-32.28 30.12134,-63.7333 47.888,-94.16 11.316,-19.4133 23.36933,-38.4 36.16267,-56.9333 18.31333,-26.6 38.04666,-52.2667 59.12133,-76.76 17.95867,15.92 35.944,31.8267 53.90129,47.7333 -18.50529,21.64 -35.86129,44.2267 -51.98796,67.6134 -12.81866,18.5066 -24.84533,37.5333 -36.08,57.0266 -15.58,26.9467 -29.656,54.7734 -42.12,83.3067 -3.99066,9.16 -7.84533,18.4 -11.50799,27.72 -10.468,26.5066 -19.59734,53.6266 -27.27867,81.1733 8.884,2.1333 17.76667,4.24 26.67733,6.3467 0.848,0.2133 1.69467,0.44 2.54267,0.6266 7.324,-25.96 15.93466,-51.52 25.85733,-76.5866 9.40267,3.9066 18.804,7.8133 28.23467,11.7466 12.87466,5.36 25.77466,10.72 38.62133,16.08 -8.392,21.4534 -15.79867,43.32 -22.112,65.5467 -2.98,10.3333 -5.71333,20.72 -8.17333,31.2133 -2.73334,11.4 -5.19334,22.8534 -7.352,34.3867 -4.648,24.76 -8.09067,49.7733 -10.22267,74.8933 -0.848,9.9734 -1.504,19.9467 -1.94133,29.9334 -1.06534,23.2 -0.984,46.4666 0.21866,69.5866 10.032,-0.9866 20.11734,-1.9733 30.176,-2.96 -1.09333,-21.56 -1.176,-43.12 -0.24533,-64.6933 0.384,-10 1.01067,-19.9733 1.86,-29.96 1.96667,-23.36 5.08267,-46.7067 9.4,-69.8267 3.47333,-18.5866 7.68267,-37.04 12.62933,-55.3333 0.92934,-3.44 1.91334,-6.88 2.92534,-10.3333 5.90266,-20.6 12.764,-40.9334 20.60933,-60.92 3.66267,-9.2934 7.488,-18.5334 11.53333,-27.6667 9.56666,-21.6667 20.25466,-42.8 31.95336,-63.32 11.152,-19.5466 23.2613,-38.5466 36.244,-56.92 12.272,-17.3466 25.3653,-34.16 39.1413,-50.4 17.9853,15.9067 35.9427,31.8534 53.9013,47.76 -11.2346,13.28 -21.9213,27.0534 -31.98,41.24 8.5547,5.44 17.1374,10.8533 25.6934,16.2667 9.2106,-12.8 18.916,-25.2533 29.1093,-37.28 6.424,-7.6267 13.0667,-15.12 19.9547,-22.4133 12.1906,-13.16 25.036,-25.7467 38.4306,-37.72 16.728,-15.04 34.3027,-29.12 52.6427,-42.1867 12.0547,-8.5733 24.4093,-16.6933 37.0653,-24.3467 0.7374,-0.4666 1.4747,-0.9066 2.24,-1.3733 8.5587,-5.1067 17.252,-10.0533 26.0787,-14.76 15.9333,-8.4933 32.2533,-16.2533 48.8667,-23.28 20.72,-8.7733 41.9333,-16.3733 63.4933,-22.7467 14.96,-4.4533 30.04,-8.3066 45.2667,-11.5866 4.4,23.64 8.8,47.3066 13.2266,70.9333 -11.4533,2.4533 -22.7866,5.32 -34.0266,8.5733 -21.64,6.24 -42.8534,13.8667 -63.52,22.8267 -12.76,5.5467 -25.4,11.5867 -37.72,18.1467 -8.8267,4.68 -17.52,9.6 -26.08,14.76 -10.08,6.1066 -19.9467,12.52 -29.6267,19.3066 -15.5787,10.8134 -30.5853,22.5467 -44.9627,35.0667 -2.6226,2.2667 -5.22,4.5867 -7.7893,6.9067 -10.3053,9.36 -20.2267,19.1066 -29.712,29.2266 -6.8613,7.2667 -13.476,14.7867 -19.8987,22.4667 -7.6253,9.1333 -14.9506,18.5066 -21.9213,28.1333 -13.2293,18.2267 -25.3107,37.2533 -36.08,57.0133 -6.6427,12.08 -12.792,24.4 -18.3947,36.9734 -22.332,-9.2934 -44.6093,-18.5867 -66.912,-27.8534 7.2694,-16.3333 15.3067,-32.3066 24.0254,-47.8533 -2.952,-1.88 -5.904,-3.7467 -8.8574,-5.6267 -5.5746,-3.5066 -11.1226,-7.0266 -16.6986,-10.56 -9.5667,17.0934 -18.3414,34.56 -26.268,52.4534 -4.0734,9.16 -7.9254,18.3733 -11.5067,27.72 -6.3427,16.32 -12,32.9333 -16.9747,49.7733 -2.8973,9.8933 -5.5493,19.8667 -7.9813,29.9333 -2.844,11.8267 -5.3573,23.7467 -7.544,35.7467 -3.4427,19.1067 -6.04,38.3467 -7.7093,57.68 -0.9,9.9733 -1.5574,19.9733 -1.94,29.9467 -0.7374,17.72 -0.7107,35.4 0.083,53.0533 0.9574,22.5067 3.1427,44.92 6.5334,67.1333 2.8973,19.0534 6.6693,38 11.288,56.6934 -2.46,0.7066 -4.92,1.3733 -7.38,2.0266 -20.7747,5.7067 -41.57469,11.4 -62.34802,17.0534 -5.68534,-22.6667 -10.19467,-45.6267 -13.584,-68.72 -10.03067,1.0133 -20.09067,2 -30.14934,2.9866 3.55467,24.8134 8.41867,49.4134 14.51334,73.7467 -23.204,6.3333 -46.412,12.68 -69.644,19.0133 -7.16133,-28.2266 -12.76533,-56.88 -16.78133,-85.7066 -3.14534,-22.3067 -5.33067,-44.72 -6.588,-67.1867 -1.504,-27.04 -1.66934,-54.1467 -0.46534,-81.2133 0.43734,-9.9734 1.06534,-19.9467 1.88667,-29.9334 2.376,-29.16 6.34133,-58.2133 11.89067,-87.0266 -9.76,-2.3467 -19.51734,-4.64 -29.248,-6.9734 -5.932,30.4267 -10.16667,61.2 -12.73734,92.0667 v 0.027 c -0.84666,9.9733 -1.504,19.9466 -1.968,29.9333 -1.36666,28.72 -1.23066,57.4533 0.40934,86.0667 1.28533,22.4933 3.472,44.9066 6.56,67.1866 4.23733,30.56 10.16933,60.92 17.768,90.8 -23.20667,6.3467 -46.44,12.68 -69.67334,19.0534 -8.71866,-33.84 -15.44266,-68.2 -20.144,-102.8 l -30.17733,2.9466 c 4.02,30.12 9.568,60.0267 16.51067,89.5734 1.448,6.12 2.924,12.1866 4.50933,18.2933 2.488,9.6667 5.112,19.2933 7.9,28.88 9.62133,33.0267 21.04533,65.52 34.22133,97.28 8.60934,20.7733 17.95734,41.2533 28.07067,61.3467 9.53867,18.9866 19.73467,37.6666 30.55867,55.9733 7.76266,13.12 15.85333,26.08 24.244,38.8133 5.49466,8.3334 11.09733,16.5867 16.89333,24.76 19.84266,28.1867 41.24533,55.32 64.04133,81.16 14.89733,16.8934 30.39467,33.24 46.43867,48.9734 9.59466,9.4133 19.38002,18.5866 29.38402,27.5866 17.084,15.36 34.7413,30.0667 52.8906,44.1467 -8.0093,10.68 -16.0173,21.4 -24.0266,32.08 -6.368,8.5067 -12.7094,17 -19.052,25.48 -32.00669,-24.76 -62.51069,-51.4667 -91.29336,-79.8667 -16.016,-15.7733 -31.51466,-32.12 -46.43733,-48.96 -13.04,-14.6533 -25.64,-29.7066 -37.776,-45.12 -11.61733,-14.7066 -22.796,-29.7466 -33.56533,-45.0533 -5.76667,-8.1733 -11.39867,-16.4267 -16.892,-24.7867 -22.35733,-33.8666 -42.64,-69.04 -60.79067,-105.32 -9.31866,4.24 -18.63999,8.48 -27.95999,12.7467 11.34266,22.84 23.56,45.2533 36.59866,67.2 8.58267,14.44 17.49467,28.68 26.75867,42.68 5.49466,8.3333 11.12666,16.5867 16.89333,24.76 22.98667,32.7467 47.83333,64.1467 74.428,94.0533 14.95066,16.84 30.42133,33.1467 46.43866,48.9734 11.536,11.4 23.39734,22.5866 35.47867,33.4666 19.27067,17.32 39.224,33.92 59.77869,49.7467 7.9266,6.12 15.9093,12.08 24.0266,17.9867 32.444,23.5333 66.228,45.1733 101.16,64.8 4.7014,-8.96 9.3747,-17.9334 14.0494,-26.92 -24.736,-13.9467 -48.9,-29 -72.3787,-45.0134 -8.2813,-5.6666 -16.4547,-11.4266 -24.5453,-17.3333 12.0253,-16.08 24.0533,-32.1733 36.08,-48.24 2.3773,-3.1467 4.7013,-6.2933 7.08,-9.44 27.9893,20.28 57.1253,38.9867 87.192,56.0133 19.572,11.0934 39.524,21.5067 59.888,31.16 4.7826,2.2667 9.5933,4.5334 14.432,6.72 28.208,12.8534 57.072,24.24 86.4533,34.1467 9.4533,3.2133 18.9733,6.2533 28.56,9.1467 33.1067,10.04 66.7867,18.2133 100.7867,24.52 1.5333,-9.8934 3,-19.8134 4.5333,-29.7067 -32.3867,-6.0667 -64.5067,-13.9467 -96.08,-23.5067 -0.44,-0.1066 -0.8667,-0.2533 -1.3067,-0.3866 -9.1333,-2.76 -18.2,-5.68 -27.2266,-8.7734 -32.7707,-11.1466 -64.888,-24.16 -96.1574,-39 -20.3093,-9.6533 -40.2906,-20.04 -59.86,-31.1866 -22.8226,-13.0134 -45.0733,-27.0134 -66.6933,-41.9867 -5.4667,-3.7733 -10.9067,-7.6267 -16.2627,-11.5333 -8.0906,-5.88 -16.1,-11.8934 -24,-18.04 -27.388,-21.2667 -53.5186,-44.0934 -78.3093,-68.36 -16.07199,-15.7467 -31.56932,-32.0667 -46.43866,-48.96 -12,-13.6134 -23.59066,-27.5734 -34.76933,-41.9067 -9.04667,-11.5867 -17.79467,-23.36 -26.24,-35.36 19.81733,-13.5067 39.63333,-27.0133 59.44933,-40.5067 16.812,23.6667 34.76934,46.44 53.87466,68.1867 6.888,-6.5867 13.804,-13.12 20.7187,-19.68 0.4933,-0.4533 1.012,-0.92 1.504,-1.3867 -17.9854,-20.6133 -34.90402,-42.0933 -50.73069,-64.4 -5.79467,-8.1466 -11.42533,-16.4 -16.92,-24.7333 -15.88,-24.2133 -30.47733,-49.3333 -43.70533,-75.1467 -9.29334,4.24 -18.58667,8.5067 -27.908,12.7467 7.92666,15.6 16.34666,30.9333 25.284,46.0267 6.724,11.3733 13.72133,22.6 20.964,33.64 -19.816,13.48 -39.60534,26.96 -59.42134,40.4533 -19.10666,-29.08 -36.57333,-59.2267 -52.23466,-90.28 -10.14133,-20.0533 -19.54267,-40.5067 -28.18,-61.3067 -3.71867,-8.96 -7.29867,-18.0133 -10.74267,-27.08 -8.14533,-21.5733 -15.47066,-43.3866 -21.92133,-65.4933 23.17867,-6.3467 46.412,-12.7067 69.61733,-19.0533 8.09067,27.72 17.604,54.96 28.53733,81.72 8.44534,-3.8534 16.91867,-7.7067 25.36534,-11.56 0.792,-0.3734 1.612,-0.7334 2.432,-1.12 -3.33467,-8.0934 -6.53334,-16.2934 -9.59334,-24.52 -6.424,-17.2934 -12.24666,-34.84 -17.44,-52.5334 2.35067,-0.6533 4.756,-1.28 7.108,-1.9333 20.85467,-5.6933 41.68267,-11.4 62.51067,-17.12 6.61467,22.4133 14.268,44.48 23.01467,66.1733 8.36266,20.84 17.73866,41.3334 28.072,61.3734 6.09466,11.8266 12.51732,23.5066 19.26932,34.9866 5.876,10.0267 12.0253,19.92 18.34,29.6267 5.4947,8.36 11.1253,16.6133 16.92,24.7333 13.64,19.1067 28.18,37.56 43.5413,55.2667 14.7334,17 30.232,33.3467 46.468,48.9333 17.9027,17.1867 36.652,33.48 56.1974,48.76 -14.4054,19.24 -28.8094,38.48 -43.188,57.7334 -22.7667,-17.8267 -44.5534,-36.8267 -65.272,-56.9467 -7.3787,7 -14.76,14 -22.1667,21.0267 21.948,21.3466 45.0453,41.4666 69.1813,60.2666 7.8707,6.1467 15.8814,12.16 23.9707,18.0134 23.5333,17.0533 47.9707,32.8533 73.2267,47.32 19.46,11.2 39.4146,21.56 59.8306,31.1333 1.6147,0.76 3.2547,1.52 4.8934,2.2667 26.104,12.0266 52.8106,22.6533 80.0373,31.8666 9.4533,3.2267 18.96,6.2934 28.56,9.16 27.8533,8.36 56.1733,15.28 84.7333,20.72 22.1067,4.1734 44.36,7.5067 66.72,9.9734 30.28,3.3066 60.76,5 91.24,5.0266 10,0.027 20,-0.1333 29.9867,-0.4933 29.08,-0.9867 58.08,-3.4933 86.8933,-7.5733 -1.6933,-9.3467 -3.4266,-18.6667 -5.12,-27.9867 -0.1066,-0.6533 -0.2133,-1.3067 -0.32,-1.96 -27.1733,3.88 -54.5333,6.36 -82.0266,7.3733 -8.1467,0.3334 -16.32,0.4934 -24.52,0.5467 -1.84,0 -3.6667,0.027 -5.4667,0 -28.8133,-0.027 -57.5733,-1.5867 -86.1333,-4.7067 -22.3867,-2.4266 -44.6534,-5.7866 -66.7467,-10.0533 -26.9467,-5.2133 -53.6533,-11.8 -79.92,-19.76 -9.6,-2.8667 -19.1067,-5.9333 -28.56,-9.1867 -27.2533,-9.2933 -54.0147,-20.0933 -80.1187,-32.28 -20.3626,-9.5066 -40.3706,-19.8666 -59.86,-31.08 -20.7173,-11.92 -40.8906,-24.76 -60.46,-38.5066 -2.8973,-2.0267 -5.768,-4.08 -8.6386,-6.16 1.504,-1.96 2.9533,-3.96 4.456,-5.8934 12.9013,-17.3066 25.8306,-34.5466 38.7586,-51.8266 19.1054,13.7466 38.896,26.5733 59.2854,38.4266 4.6746,-8.9866 9.376,-18.0133 14.0773,-27 -16.2907,-9.4533 -32.1973,-19.6266 -47.6693,-30.4533 -2.5147,-1.7467 -5.028,-3.52 -7.4894,-5.3067 -8.1466,-5.84 -16.1266,-11.8266 -23.9706,-18.04 -18.1774,-14.2666 -35.616,-29.4266 -52.2614,-45.4 -16.2373,-15.5733 -31.7346,-31.92 -46.412,-48.9733 -14.2426,-16.5067 -27.744,-33.7067 -40.4,-51.4667 -5.8213,-8.1466 -11.452,-16.3733 -16.892,-24.7466 -12.6826,-19.4267 -24.408,-39.4934 -35.1226,-60.08 -10.36,-19.9734 -19.78936,-40.4134 -28.20802,-61.3334 -2.104,-5.2133 -4.15467,-10.4666 -6.12267,-15.7333 -5.65733,-15.0933 -10.79733,-30.3467 -15.33333,-45.7333 23.20533,-6.3734 46.46662,-12.7334 69.67202,-19.08 5.084,17.08 10.9066,33.9733 17.4653,50.5866 9.2133,-4.2 18.4507,-8.4133 27.6627,-12.6266 -1.3134,-3.36 -2.5974,-6.72 -3.8547,-10.08 -4.428,-11.84 -8.4453,-23.8134 -12.0813,-35.8667 -2.8974,-9.5867 -5.5214,-19.2133 -7.9,-28.92 -4.236,-17.0533 -7.68,-34.2933 -10.3587,-51.6267 -3.444,-22.2533 -5.6307,-44.6666 -6.56,-67.16 -0.684,-16.04 -0.7107,-32.12 -0.1093,-48.16 0.3826,-10 1.012,-20.0133 1.8866,-29.9866 1.5574,-17.6 3.88,-35.1734 6.9974,-52.64 3.1426,-17.7067 7.1066,-35.3467 11.8893,-52.7867 1.148,-4.2933 2.4053,-8.5733 3.6627,-12.8667 4.5373,-15.2266 9.704,-30.3466 15.4426,-45.1866 22.3307,9.2933 44.6094,18.56 66.94,27.8266 -4.3186,11.24 -8.228,22.6267 -11.7533,34.1334 9.7853,2.3333 19.544,4.6533 29.328,6.9733 3.0347,-9.9467 6.452,-19.7867 10.168,-29.5467 3.5547,-9.32 7.408,-18.5866 11.536,-27.6533 v -0.027 c 4.9747,-11.0266 10.3587,-21.8133 16.152,-32.4 10.744,-19.7866 22.8787,-38.7866 36.2173,-56.9066 6.096,-8.2534 12.4374,-16.32 19.052,-24.1867 6.396,-7.6533 13.0387,-15.1467 19.9267,-22.4133 8.336,-8.8267 17,-17.4134 25.9667,-25.6133 16.5906,-15.2267 34.1933,-29.3067 52.7,-42.1467 8.3333,-5.8 16.84,-11.32 25.4933,-16.6133 8.56,-5.2 17.2533,-10.12 26.1067,-14.76 10.8533,-5.7467 21.8933,-11.0534 33.1066,-15.9734 20.64,-8.9866 41.8934,-16.5866 63.52,-22.7066 9.68,-2.7334 19.44,-5.2 29.3067,-7.36 9.7467,-2.12 19.56,-3.9867 29.4533,-5.5467 12.1467,-1.9067 24.36,-3.36 36.64,-4.3733 22.3734,-1.8267 44.9067,-2.1334 67.4267,-0.84 2.2667,0.1066 4.5333,0.24 6.8,0.4 7.7733,0.5733 15.5067,1.2933 23.2133,2.2133 l -10.5866,71.7867 c -6.12,-0.6934 -12.2134,-1.2267 -18.3334,-1.6667 -21.5466,-1.5067 -43.2133,-1.4 -64.7866,0.3733 -0.8934,0.093 -1.7734,0.1734 -2.68,0.2534 -8.2,0.7066 -16.3334,1.6933 -24.4534,2.92 -9.8933,1.48 -19.7333,3.3066 -29.4666,5.4666 -6.04,1.3734 -12.0267,2.84 -18.0134,4.4534 3.4667,9.6533 6.9734,19.3333 10.44,28.9733 4.3734,-1.1733 8.7734,-2.2667 13.1734,-3.3067 9.7066,-2.2666 19.5466,-4.1466 29.44,-5.68 6.4266,-0.96 12.8666,-1.8 19.3466,-2.44 22.2267,-2.2666 44.8267,-2.64 67.4667,-0.9466 1.8,0.1333 3.5733,0.2666 5.3867,0.44 2.6933,0.24 5.4,0.5066 8.1066,0.8133 9.96,1.0933 19.8534,2.5733 29.6667,4.4267 6.3867,1.1733 12.7333,2.5466 19.0533,4.04 21.8934,5.2533 43.3467,12.36 64.0134,21.24 4.1466,1.7466 8.3066,3.6133 12.4266,5.5466 9.0534,4.24 17.9334,8.84 26.6267,13.76 5.6,3.1333 11.12,6.44 16.5333,9.8933 16.1067,10.1334 31.4934,21.5067 45.9734,33.9734 2.6,2.2666 5.2,4.5333 7.7333,6.8933 3.4267,3.0533 6.7867,6.1733 10.04,9.4 7.1867,6.96 14.0533,14.1867 20.6667,21.6667 4.2,4.76 8.28,9.6266 12.2666,14.5466 14.08,17.5734 26.6534,36.32 37.64,55.9734 2.24,4.1066 4.48,8.2666 6.5867,12.4133 4.56,8.9067 8.7733,17.96 12.6266,27.1733 2.4,5.7067 4.68,11.48 6.7867,17.32 3.8267,10.5334 7.24,21.24 10.16,32.0667 2.96,10.9333 5.4133,21.9467 7.3867,33.08 0.84,4.7467 1.5866,9.5333 2.24,14.32 1.4133,9.8933 2.4266,19.8667 3.0266,29.84 0.4134,6.04 0.6267,12.12 0.7467,18.1333 0.3733,22.52 -1.1867,45.04 -4.6,67.32 -0.7333,4.8934 -1.5867,9.8134 -2.5333,14.68 -1.8667,9.8134 -4.1334,19.56 -6.76,29.2134 -1.56,5.7066 -3.2267,11.3733 -5.0534,17 -2.3733,7.4666 -5,14.8666 -7.84,22.1733 -5.3333,13.6933 -11.4533,27.0533 -18.2933,40.04 -2.3733,4.5067 -4.8666,8.9867 -7.4,13.4133 -5,8.6667 -10.3333,17.1467 -16,25.4 -3.2266,4.7334 -6.56,9.4 -10.0266,14 -13.5067,18.04 -28.5334,34.8934 -44.9334,50.4267 -3.7733,3.6 -7.68,7.16 -11.64,10.6 -7.52,6.56 -15.2533,12.8533 -23.2666,18.84 -4.5334,3.4133 -9.1334,6.72 -13.8267,9.92 -18.6133,12.7067 -38.32,23.7733 -58.7733,33.1467 -4.8667,2.1866 -9.7867,4.3466 -14.7067,6.3733 -9.2667,3.8 -18.6667,7.2133 -28.1733,10.28 -5.3334,1.7467 -10.72,3.36 -16.1067,4.84 -21.6933,6.04 -43.8933,10.2133 -66.3067,12.4667 -5.36,0.5333 -10.72,0.9733 -16.1333,1.28 -9.5333,0.5466 -19.0933,0.7333 -28.6667,0.6 -0.4666,0 -0.9066,-0.027 -1.4,-0.053 -5.5733,-0.08 -11.1466,-0.3333 -16.72,-0.68 -22.5466,-1.4 -44.88,-4.7333 -66.7733,-9.9866 -5.3067,-1.2267 -10.56,-2.6134 -15.7733,-4.0667 -9.6267,-2.7067 -19.1334,-5.8 -28.5067,-9.2133 -5.28,-1.9067 -10.56,-3.96 -15.72,-6.0934 -20.8,-8.6133 -40.8933,-18.9733 -59.9467,-31.0266 -4.5333,-2.84 -8.96,-5.7867 -13.36,-8.8267 -3.4666,-2.4 -6.92,-4.84 -10.28,-7.3467 -4.6933,-3.48 -9.2933,-7.0533 -13.8,-10.7466 -4.4266,-3.5867 -8.7466,-7.24 -13.0133,-11.04 -16.8933,-14.96 -32.44,-31.3867 -46.548,-48.9867 -3.3067,-4.12 -6.5613,-8.3067 -9.704,-12.6 -5.9027,-8.0133 -11.5333,-16.2667 -16.836,-24.7333 -3.116,-4.9467 -6.124,-9.9467 -8.9667,-15.04 -11.152,-19.5334 -20.636,-40.04 -28.2893,-61.2534 -0.3,-0.7866 -0.6013,-1.6133 -0.8747,-2.4266 -1.4493,-4.08 -2.8426,-8.1734 -4.1266,-12.28 -3.0347,-9.5334 -5.6587,-19.2134 -7.928,-28.9467 -1.3667,-5.8133 -2.5694,-11.6667 -3.636,-17.5467 -4.1254,-22.1333 -6.312,-44.6266 -6.56,-67.12 -0.081,-5.04 -0.053,-10.0666 0.055,-15.12 0.2747,-9.9733 0.9027,-19.9866 1.9147,-29.96 0.6293,-6.0933 1.3667,-12.16 2.2693,-18.2266 2.4867,-16.9734 6.0947,-33.7867 10.824,-50.3467 1.476,-5.12 3.0334,-10.2267 4.7,-15.3067 1.5587,-4.6533 3.172,-9.2666 4.8934,-13.8666 3.4706,-9.3734 7.3253,-18.6134 11.5066,-27.68 l 0.028,-0.027 c 2.596,-5.6933 5.384,-11.3467 8.3094,-16.8667 10.468,-20.12 22.6866,-39.12 36.3533,-56.8266 2.8707,-3.7734 5.8213,-7.4934 8.856,-11.1334 6.4,-7.7066 13.0667,-15.1333 20.04,-22.32 4.4,-4.5733 8.9333,-9.0266 13.5733,-13.4 16.44,-15.44 34.1467,-29.4666 52.8934,-41.88 3.8266,-2.56 7.7066,-5.0533 11.6133,-7.4533 8.5067,-5.2533 17.2267,-10.1733 26.08,-14.76 5.72,-2.9867 11.48,-5.8 17.3067,-8.48 -3.5067,-9.6933 -6.9734,-19.4 -10.4934,-29.1066 -7.44,3.3333 -14.7866,6.92 -22.04,10.72 -8.8266,4.56 -17.5466,9.5066 -26.0666,14.7333 -5.3334,3.28 -10.6134,6.6666 -15.8,10.1866 -13.3734,9 -26.24,18.7867 -38.5467,29.3067 -4.84,4.12 -9.5867,8.3867 -14.2133,12.76 -5.96,5.4933 -11.6934,11.2133 -17.244,17.08 -6.888,7.2267 -13.5307,14.7067 -19.8707,22.4133 -4.0733,4.92 -8.0093,9.96 -11.864,15.04 -13.5293,18.0134 -25.6107,37.0667 -36.108,56.9867 -3.716,7.0533 -7.2693,14.1867 -10.5493,21.4533 -4.1814,9.08 -8.036,18.32 -11.536,27.6934 -2.2947,6.0933 -4.4267,12.2533 -6.4214,18.4533 -2.9253,8.96 -5.496,17.9867 -7.7626,27.1467 -3.2,12.7066 -5.768,25.5733 -7.7907,38.5333 -1.2013,7.7067 -2.188,15.4933 -2.952,23.2667 -20.2,-1.2934 -40.372,-2.5734 -60.5707,-3.8534 -3.9093,-0.2533 -7.872,-0.52 -11.7813,-0.7733 1.1213,-11.8667 2.652,-23.6933 4.592,-35.4533 -9.7573,-2.32 -19.516,-4.64 -29.2733,-6.9334 -2.296,13.3867 -4.0734,26.92 -5.3027,40.48 v 0.027 c -0.9307,9.9467 -1.5853,19.92 -1.968,29.8933 -0.436,12.2 -0.436,24.3867 -0.027,36.5467 0.7374,22.4933 2.924,44.9333 6.532,67.1333 2.1587,13.3334 4.8654,26.5467 8.0347,39.64 2.352,9.6934 4.976,19.3467 7.8733,28.9067 3.5814,11.8133 7.572,23.4533 12,34.96 7.9814,21 17.384,41.4933 28.0974,61.3467 2.9253,5.4933 5.96,10.9333 9.1026,16.28 3.6347,6.16 7.3534,12.2 11.2067,18.2133 -19.844,13.4933 -39.6893,27 -59.532,40.5333 -9.4573,-14.6 -18.2573,-29.6 -26.4573,-45.0133 -8.2014,3.7333 -16.3747,7.48 -24.6,11.2267 -1.0667,0.4933 -2.1334,0.9866 -3.2267,1.48 4.236,8.0266 8.6373,16.0133 13.2293,23.88 5.056,8.6666 10.3307,17.2266 15.7987,25.6133 5.4387,8.4 11.0693,16.6533 16.892,24.7733 10.4973,14.5867 21.5653,28.7467 33.2373,42.36 14.624,17.1067 30.148,33.4267 46.4667,48.9067 13.8307,13.0533 28.208,25.4933 43.1307,37.28 7.8453,6.2 15.8813,12.2133 24,18.04 14.6786,10.4933 29.7933,20.3333 45.3186,29.52 18.592,10.96 37.752,20.9867 57.432,29.9867 0.8134,0.3733 1.6134,0.7333 2.4534,1.0933 17.28,7.8133 34.88,14.7867 52.7866,20.9867 -0.7466,2.1866 -1.4266,4.4266 -2.16,6.64 -6.64,20.6933 -13.32,41.3866 -19.9866,62.08 -21.76,-7.4934 -43.1334,-16.08 -64.0667,-25.6934 -4.7067,8.9867 -9.4,18.0134 -14.0773,27 0.7933,0.3867 1.6106,0.7334 2.4106,1.0934 21.6934,9.92 43.8667,18.72 66.44,26.4266 9.4534,3.2534 18.9734,6.2934 28.56,9.1334 22.6134,6.72 45.5467,12.36 68.6667,16.8933 22.08,4.3467 44.36,7.68 66.7467,9.9733 24.5466,2.5467 49.2,3.88 73.88,3.9734 10.0133,0.053 20.0133,-0.12 29.9866,-0.4934 23.56,-0.88 47.0667,-2.88 70.44,-6.0133 14.2667,-1.92 28.48,-4.2667 42.6134,-7.0267 7.9466,-1.5866 15.88,-3.28 23.7466,-5.12 24.12,-5.5733 47.8667,-12.4266 71.24,-20.44 8.1734,22.4934 16.4,45.0134 24.6,67.52 -27.2,9.3734 -54.8666,17.3467 -82.9066,23.7734 1.8,10.0533 3.6666,20.12 5.4666,30.1733 29.7867,-6.72 59.1467,-15.1333 87.96,-25.12 l 24.68,67.6533 c -3.3333,1.1467 -6.6933,2.2934 -10.0266,3.4134 -29.44,9.8666 -59.3734,18.2133 -89.68,24.96 -21.9467,4.92 -44.0667,9.0133 -66.3467,12.24 -32.6,4.7866 -65.48,7.7733 -98.4533,8.92 -6.36,0.2133 -12.7334,0.3733 -19.1067,0.4533 -3.6267,0.067 -7.2667,0.093 -10.88,0.093 -34.6,0.053 -69.1467,-1.8933 -103.5067,-5.7733 -1.48,9.8933 -2.9733,19.7867 -4.48,29.68 36.0534,4.1067 72.2934,6.16 108.5334,6.0667 0.28,13.5066 0.52,27.0133 0.8,40.4799 0.1866,10.6934 0.4133,21.36 0.6266,32.0667 -40.3733,0.1333 -80.7466,-2.1333 -120.84,-6.8 -22.36,-2.6267 -44.6133,-5.96 -66.7466,-10.04 -35.6667,-6.56 -70.9867,-15.0533 -105.7334,-25.4133 -2.12,-0.6533 -4.2533,-1.28 -6.36,-1.9467 -9.6,-2.92 -19.0826,-5.9866 -28.5386,-9.1866 -38.268,-12.9467 -75.768,-28.2 -112.1774,-45.6934 -4.6733,8.96 -9.3733,17.9334 -14.048,26.8934 7.2707,3.5066 14.596,6.92 21.948,10.2266 31.024,14.0134 62.7307,26.4533 94.984,37.3067 -7.38,22.9333 -14.76,45.8933 -22.168,68.8533 -27.004,-9.1067 -53.6826,-19.2133 -79.9226,-30.4 -16.2907,-6.9067 -32.3614,-14.2133 -48.2694,-21.92 -20.2826,-9.7867 -40.208,-20.2 -59.8066,-31.24 -38.348,-21.5066 -75.384,-45.2933 -110.89069,-71.2 -8.09067,-5.88 -16.1,-11.8933 -24.02667,-18.0133 -15.224,-11.76 -30.12133,-23.8667 -44.71733,-36.4133 -20.5,-17.5734 -40.34267,-35.9334 -59.504,-54.9867 -2.16,2.0533 -4.29066,4.04 -6.396,6.0667 -5.35866,5.0533 -10.688,10.08 -15.99066,15.1733 13.58533,13.52 27.55333,26.6933 41.84799,39.52 21.42934,19.24 43.596,37.6667 66.42,55.1867 -0.0267,0 -0.0267,0.027 -0.0267,0.027 1.53066,1.1734 3.03333,2.32 4.564,3.44 1.50266,1.1734 3.03333,2.3334 4.536,3.44 2.13333,1.6134 4.23733,3.1734 6.36933,4.76 2.87067,2.1067 5.71333,4.2134 8.556,6.2934 36.87203,26.84 75.38533,51.4399 115.21073,73.6666 -0.028,0.013 -0.028,0.013 -0.028,0.053 17.1653,9.5867 34.604,18.7467 52.2613,27.4134 2.5147,1.2266 5.0293,2.48 7.572,3.6933 8.1173,3.9333 16.3173,7.7867 24.544,11.5333 35.3973,16.0934 71.6147,30.3067 108.432,42.6134 v 0.027 c 9.456,3.1867 18.9973,6.2534 28.536,9.1467 l 0.028,-0.08 c 43.6213,13.3467 88.0347,24.08 132.9547,32.1733 v 0.027 c 5.6266,1.0133 11.28,1.9733 16.9466,2.8933 0.4267,0.12 0.8667,0.1734 1.3067,0.2267 5.0267,0.8133 10.08,1.6133 15.1467,2.3733 1.0666,0.16 2.1333,0.3334 3.1866,0.4934 0.9867,0.1333 1.9467,0.28 2.9334,0.4133 2.0533,0.2933 4.0933,0.6 6.1466,0.8667 7.0267,1.0133 14.0534,1.92 21.0534,2.76 v -0.027 c 1.7733,0.2267 3.6,0.44 5.4,0.6667 45.7333,5.3466 91.7866,7.92 137.8266,7.7066 0,0.027 0,0.027 0,0.053 10,-0.027 20,-0.2 29.9467,-0.52 v -0.027 c 45.6267,-1.4 91.1333,-5.52 136.24,-12.44 v 0.027 c 1.4133,-0.2134 2.84,-0.4667 4.28,-0.68 3.12,-0.4934 6.2133,-0.9867 9.2933,-1.5067 1.0134,-0.1333 2.0267,-0.32 3.04,-0.4667 6.8,-1.1733 13.5867,-2.3733 20.36,-3.6266 3.48,-0.6667 6.9467,-1.32 10.3867,-2 6.3467,-1.2267 12.68,-2.5467 19,-3.9067 46.8,-10.0667 92.9867,-22.9867 138.1466,-38.7867 0.027,0 0.027,0.027 0.027,0.027 9.4533,-3.28 18.8533,-6.72 28.1733,-10.2533 0,-0.027 0,-0.027 -0.027,-0.053 42.6133,-16.1333 84.24,-34.8533 124.6133,-56.0266 5.7467,-2.9867 11.4533,-6.0534 17.1333,-9.16 3.04,-1.6667 6.0534,-3.3067 9.0267,-5 8.5333,-4.76 16.9733,-9.6267 25.4,-14.6267 2.4,-1.4267 4.8,-2.8667 7.2133,-4.32 41.08,-24.7066 80.5467,-52.04 118.2134,-81.76 5.9066,-4.6133 11.7733,-9.2933 17.5733,-14.04 1.92,-1.5866 3.8267,-3.1733 5.7733,-4.7866 32.3067,-26.76 63.1334,-55.3467 92.2667,-85.5334 2.4133,-2.5066 4.7867,-5.08 7.2,-7.5866 1.9333,-2.0267 3.88,-4.08 5.8133,-6.16 3.2534,-3.44 6.4534,-6.9334 9.6267,-10.44 2.0533,-2.24 4.0933,-4.48 6.12,-6.7467 0.4667,-0.52 0.96,-1.0667 1.4,-1.5867 4.9733,-5.5733 9.8667,-11.1733 14.76,-16.84 2.4267,-2.84 4.8267,-5.68 7.24,-8.5466 0,0 0,0 0,-0.04 30.9067,-36.76 59.5067,-75.4934 85.52,-115.8534 l 0.027,0.027 c 0.5466,-0.88 1.0933,-1.6933 1.6133,-2.5733 4.3467,-6.7467 8.6133,-13.56 12.8267,-20.4134 0.4933,-0.8 0.9866,-1.5866 1.4666,-2.4133 h -0.027 c 16.24,-26.68 31.36,-53.9867 45.3466,-81.8933 6.3467,-12.6267 12.4134,-25.3867 18.24,-38.2667 h 0.027 c 0.2667,-0.6 0.5733,-1.2533 0.84,-1.8533 1.5333,-3.3867 3.04,-6.7734 4.5467,-10.1734 1.4666,-3.3866 2.9466,-6.7733 4.4266,-10.1866 l 7.2934,-17.4134 c 1.0133,-2.52 2.0266,-5 3.04,-7.52 0.9733,-2.52 1.9866,-5 2.9733,-7.52 0.9867,-2.5066 1.9733,-5.0266 2.92,-7.5333 17.28,-44.9467 31.7067,-91 43.1867,-137.76 0.027,0 0.027,0 0.027,0 2.4134,-9.7067 4.6534,-19.44 6.7867,-29.2267 -0.027,0 -0.027,0 -0.053,0 5.0533,-23.2 9.4266,-46.5466 13.0666,-70.0266 3.28,-21.16 5.9867,-42.4267 8.0267,-63.7467 h 0.027 c 0.2266,-2.32 0.44,-4.64 0.6666,-6.96 0.1067,-0.96 0.1867,-1.9733 0.2667,-2.96 0.3067,-3.1067 0.5467,-6.2 0.8,-9.2933 0.2933,-3.52 0.5733,-7.08 0.8133,-10.6267 0.027,-0.053 0.027,-0.1333 0.027,-0.2 0.9333,-12.4267 1.6133,-24.84 2.1067,-37.28 -0.027,0 -0.027,0 -0.053,-0.027 1.9334,-48.24 0.8134,-96.6266 -3.36,-144.7333 h 0.027 c -0.3067,-3.44 -0.6,-6.88 -0.96,-10.32 -0.3867,-4.0267 -0.7867,-8.04 -1.2267,-12.0533 -0.1466,-1.32 -0.3066,-2.6267 -0.44,-3.9467 -0.1333,-1.1733 -0.24,-2.3467 -0.3866,-3.52 h -0.027 c -1.72,-15.1733 -3.7467,-30.3467 -6.12,-45.4267 -4.5867,-29.4133 -10.3067,-58.6266 -17.2133,-87.5733 -0.4134,-1.7333 -0.8267,-3.48 -1.24,-5.2 -0.8667,-3.5733 -1.7734,-7.1867 -2.68,-10.7733 -0.3734,-1.6934 -0.84,-3.4134 -1.28,-5.1067 -0.76,-3.0667 -1.56,-6.12 -2.3734,-9.16 -1.8666,-7.08 -3.8266,-14.1333 -5.8533,-21.1867 -14.7067,-51.1599 -32.96,-101.3199 -54.64,-149.9466 -1.7733,-3.9867 -3.6133,-7.9733 -5.44,-12 -1.8533,-4.04 -3.7467,-8.12 -5.68,-12.1333 -0.2267,-0.52 -0.4667,-1.04 -0.72,-1.56 -0.2133,-0.52 -0.4933,-1.0134 -0.7067,-1.5334 h -0.027 c -2.6534,-5.52 -5.36,-11.0666 -8.12,-16.56 -17.2667,-34.68 -36.32,-68.4666 -57.0667,-101.24 -8.5333,5.76 -17.0533,11.5334 -25.5867,17.24 14.8667,23.5067 28.84,47.5334 41.8667,72.08 7.28,13.64 14.2533,27.48 20.92,41.4134 4.3467,9.0133 8.52,18.0666 12.6267,27.2 19.08,42.6933 35.4533,86.5333 48.9733,131.2533 6.56,21.5333 12.44,43.24 17.64,65.1333 4.4267,18.4533 8.3333,37.04 11.7467,55.7067 4.4266,24.0266 8.04,48.1866 10.8533,72.4666 1.1467,9.92 2.16,19.8667 3.0133,29.8134 4.12,46.44 5.2667,93.0933 3.4934,139.68 -0.8534,22.4666 -2.3734,44.9333 -4.5867,67.32 -1.04,10.6533 -2.28,21.2933 -3.6133,31.92 -4.1867,32.5866 -9.76,64.9733 -16.7867,97.04 -2.16,9.7866 -4.4,19.5066 -6.8,29.2133 -11.1333,45.08 -25.0933,89.4933 -41.7733,132.84 -8.0534,20.96 -16.7734,41.7333 -26.12,62.1867 -1.48,3.28 -2.9867,6.5333 -4.52,9.7866 -17.0267,36.32 -36.0534,71.72 -56.96,105.9734 -5.1867,8.52 -10.4934,17 -15.9334,25.3866 -25.1733,38.84 -52.7866,76.1467 -82.6,111.5734 -10.9866,13.0933 -22.3333,25.92 -33.92,38.4933 -3.6666,3.9333 -7.36,7.8933 -11.0933,11.8 -30.1867,31.7333 -62.24,61.6933 -95.8933,89.68 -7.7067,6.4 -15.4667,12.6533 -23.3334,18.84 -36.3066,28.5867 -74.32,54.9067 -113.88,78.8 -5.7866,3.4667 -11.5866,6.9067 -17.44,10.28 -13.6133,7.8933 -27.4133,15.4933 -41.3733,22.8133 -38.9067,20.4 -79,38.4933 -120.0267,54.1467 -8.1733,-22.52 -16.4,-45.04 -24.6,-67.56 37.3867,-14.24 73.9867,-30.6667 109.52,-49.2 -5.0266,-8.9467 -10.0266,-17.88 -15.0533,-26.8133 -34.0533,17.7333 -69.1067,33.5333 -104.96,47.28 -9.32,3.5866 -18.72,7.0533 -28.16,10.36 -3.7066,1.2933 -7.4266,2.5733 -11.1466,3.8266 -34.52,11.64 -69.6667,21.3733 -105.2667,29.2267 1.8133,9.92 3.6133,19.8933 5.44,29.84 41.1467,-8.9334 81.7067,-20.3867 121.4133,-34.24 8.2267,22.5466 16.4667,45.0666 24.6533,67.5866 -41.4266,14.5734 -83.7199,26.7067 -126.5999,36.2267 -2.1867,0.48 -4.3467,0.9467 -6.5334,1.44 -21.9733,4.7333 -44.0933,8.8 -66.3333,12.1867 -43.4933,6.6533 -87.3867,10.6933 -131.3467,12.12 -10,0.3466 -19.9733,0.52 -29.9733,0.5466 -36.08,0.2134 -72.2267,-1.3733 -108.1867,-4.7066 -10.0133,-0.9334 -20.0133,-1.9734 -29.9866,-3.1734 -22.3334,-2.7066 -44.5867,-6.04 -66.72,-10.0533 -43.2934,-7.8533 -86.1067,-18.2667 -128.1974,-31.1333 7.436,-22.96 14.8147,-45.9467 22.224,-68.9067 38.3467,11.6933 77.3734,21.12 116.8534,28.3467 22.1333,4.0133 44.4133,7.3733 66.7466,10 41.7867,4.8933 83.8534,7.32 125.8667,7.1866 10,0 19.9867,-0.1866 29.9867,-0.52 40.0933,-1.2533 80.08,-4.84 119.7733,-10.7733 -1.8,-9.92 -3.64,-19.84 -5.4133,-29.76 -38.08,5.68 -76.48,9.1867 -114.9334,10.4667 -0.3866,-20.1734 -0.7466,-40.3733 -1.1466,-60.5467 -0.08,-3.96 -0.1467,-7.9466 -0.2534,-11.9066 34.5734,-1.12 69.08,-4.16 103.32,-9.16 14.24,-2.08 28.4267,-4.48 42.56,-7.2134 7.96,-1.56 15.88,-3.2 23.8134,-4.9466 35.44,-7.8267 70.4,-17.7467 104.68,-29.64 9.4533,-3.28 18.8666,-6.6934 28.2133,-10.2667 32.2533,-12.36 63.7866,-26.4933 94.52,-42.3467 5.9866,-3.08 11.9066,-6.2266 17.84,-9.4533 13.8666,-7.5467 27.5066,-15.4133 40.9466,-23.64 31,-19 60.9334,-39.7467 89.52,-62.1867 8.0934,10.0534 16.24,20.0667 24.32,30.0934 6.9734,8.5866 13.8934,17.1333 20.8667,25.7733 -10.04,7.8667 -20.1733,15.52 -30.48,22.9867 -22.4133,16.2666 -45.4267,31.6 -69.0667,45.9466 5,8.9334 10.0267,17.9067 15.0267,26.84 36,-21.84 70.7333,-45.8666 103.84,-71.88 7.8667,-6.1866 15.6667,-12.4666 23.32,-18.8933 29.08,-24.16 56.8,-49.9067 83.0267,-77.08 1.5066,-1.56 2.9866,-3.12 4.4933,-4.6667 15.52,-16.2933 30.52,-33.08 44.96,-50.36 27.0533,-32.44 52.1467,-66.4933 75.08,-101.9733 5.44,-8.3867 10.7467,-16.84 15.88,-25.36 14.7333,-24.2533 28.4533,-49.12 41.1467,-74.4933 5.1066,-10.24 10.08,-20.6 14.8666,-31.04 -9.32,-3.92 -18.6133,-7.8267 -27.9333,-11.76 -16,34.72 -33.9467,68.4933 -53.8267,101.1066 -5.16,8.56 -10.4666,17 -15.9333,25.36 -11.72,18.16 -24.1067,35.92 -37.0133,53.2534 -11.28,15.1333 -23.0134,30.0133 -35.1467,44.4933 -14.4533,17.28 -29.4667,34.0267 -44.9867,50.2933 -26.4933,27.6667 -54.5066,53.8267 -83.9466,78.3467 -12.6,-15.56 -25.2,-31.1333 -37.8,-46.6933 -2.4534,-3.0267 -4.92,-6.0667 -7.3734,-9.1334 26.0934,-21.7866 51.0267,-44.9866 74.5867,-69.48 0.3067,-0.32 0.6,-0.6266 0.9067,-0.9466 -7.6,-6.8134 -15.2267,-13.6134 -22.8534,-20.4267 -22.7466,23.6133 -46.7733,46.0267 -71.92,67.0533 -7.68,6.4267 -15.44,12.68 -23.3066,18.8534 -8.5334,6.68 -17.1734,13.1733 -25.92,19.52 -19.24,14 -39.0267,27.2 -59.3334,39.6666 -19.1866,11.7467 -38.8133,22.7867 -58.8,33.12 -29.24,15.0934 -59.2799,28.5867 -89.9733,40.4534 -8.2266,-22.5734 -16.4533,-45.12 -24.6666,-67.7067 27.04,-10.4667 53.5866,-22.3867 79.3866,-35.6133 -4.52,-8.0667 -9.0533,-16.1467 -13.5867,-24.2134 -0.4666,-0.8266 -0.9066,-1.64 -1.3733,-2.4666 -24.4,12.4666 -49.44,23.6266 -74.9466,33.4933 -0.8667,-2.4133 -1.7467,-4.7867 -2.6267,-7.16 -7.32,-20.1467 -14.64,-40.2667 -22,-60.3867 21.8933,-8.5333 43.4133,-18.1466 64.3733,-28.72 20.0934,-10.1733 39.72,-21.24 58.7867,-33.1866 21,-13.0934 41.3333,-27.2534 60.9066,-42.4534 15.08,18.6667 30.1734,37.3334 45.2934,56.0134 -8.9467,6.96 -18.0667,13.7466 -27.3067,20.36 -14.24,10.1333 -28.7867,19.8133 -43.6267,28.9733 4.9734,8.8533 9.9467,17.7333 14.92,26.6267 25.9734,-16.0534 51.12,-33.4934 75.2267,-52.2667 7.8667,-6.12 15.6667,-12.4133 23.32,-18.8 20.16,-16.8933 39.5467,-34.6933 58.08,-53.4133 1.8267,-1.8534 3.6533,-3.72 5.52,-5.6 15.6933,-16.1867 30.6667,-33 44.9067,-50.36 19.52,-23.7467 37.6133,-48.5067 54.3066,-74.2 20.3734,12.76 40.76,25.5333 61.1467,38.2933 -10.2133,15.6533 -20.9067,31.0267 -32.0533,46.0267 -9.5734,12.88 -19.4934,25.48 -29.7467,37.8266 7.6,6.7867 15.2,13.56 22.8,20.36 23.28,-28.0666 44.9067,-57.5066 64.7733,-88.0666 5.44,-8.3867 10.7467,-16.8534 15.88,-25.3867 13.12,-21.68 25.3467,-43.8133 36.6267,-66.48 4.0267,-8.0933 7.9333,-16.2 11.7067,-24.3733 9.4533,-20.4267 18.12,-41.1734 26.0533,-62.2134 12.8933,-34.2266 23.7733,-69.1866 32.6,-104.6933 13.12,3.0667 26.2667,6.1333 39.36,9.1867 10.4133,2.4133 20.8267,4.84 31.2133,7.28 -7.08,28.5866 -15.4133,56.84 -24.9866,84.6933 -3.6267,10.6133 -7.4534,21.1333 -11.48,31.6267 9.3066,3.88 18.5333,7.8 27.8266,11.7333 15.0934,-39.6133 27.7734,-80.12 37.92,-121.2533 2.3734,-9.7334 4.64,-19.4667 6.7467,-29.2534 4.4533,-20.4133 8.28,-41 11.48,-61.6533 2.8667,-18.5067 5.28,-37.12 7.1333,-55.7333 2.2667,-22.3867 3.8267,-44.8267 4.6534,-67.32 1.56,-42.5067 0.5466,-85.0667 -3.0934,-127.44 -0.8133,-9.9467 -1.8266,-19.8934 -3,-29.8134 -1.5866,-13.7733 -3.4533,-27.5466 -5.6133,-41.3066 -3.9867,-25.3067 -8.9067,-50.5067 -14.76,-75.44 -9.7867,2.6266 -19.5333,5.2533 -29.32,7.88 8.6533,36.8933 15.1867,74.2933 19.5867,111.9333 1.1866,9.92 2.2,19.8933 3.0666,29.8133 3.12,35.7867 4.32,71.6934 3.5867,107.56 -0.12,4.9467 -0.2533,9.8667 -0.44,14.7867 -0.7733,22.4933 -2.2933,44.9333 -4.6267,67.32 -3.8266,37.8533 -9.7866,75.4667 -17.8933,112.64 -19.68,-4.5867 -39.36,-9.1867 -59.04,-13.7733 -3.8533,-0.9067 -7.68,-1.7734 -11.5467,-2.68 4,-18.5867 7.44,-37.3067 10.3067,-56.12 2.3067,-14.9467 4.24,-29.9467 5.8267,-45.0134 -9.9734,-0.6533 -19.9867,-1.3466 -29.9867,-2.0266 -3.3867,32.36 -8.5467,64.5333 -15.3867,96.3466 -2.1066,9.76 -4.3466,19.4934 -6.7733,29.2 -6.32,25.2267 -13.6933,50.1867 -22.1467,74.76 -2.8666,8.4134 -5.88,16.7467 -9.0133,25.0667 -7.96,21.04 -16.68,41.76 -26.1867,62.1467 -13.8133,29.6266 -29.2,58.4933 -46.1466,86.4533 -20.3867,-12.76 -40.7734,-25.52 -61.1734,-38.32 14.8267,-24.7067 28.32,-50.1467 40.5467,-76.2267 -8.4267,-3.5866 -16.8667,-7.1066 -25.32,-10.6933 -0.84,-0.3467 -1.6933,-0.7067 -2.5067,-1.04 -11.6533,24.5733 -24.4933,48.5467 -38.5466,71.7867 -5.16,8.5466 -10.4934,17.0266 -15.96,25.36 -15.8534,24.1866 -33.0134,47.5333 -51.36,69.8933 -14.2667,17.4133 -29.28,34.2133 -44.9334,50.3733 -18.9733,19.5734 -38.9466,38.1867 -59.8666,55.76 -1.52,-1.9066 -3.0534,-3.8 -4.5867,-5.7066 -13.56,-16.7334 -27.0933,-33.4934 -40.64,-50.2134 17.8933,-15.04 35.0933,-30.9733 51.4933,-47.72 -7.6,-6.84 -15.2533,-13.64 -22.88,-20.4533 -15.2533,15.52 -31.2133,30.3733 -47.8666,44.4133 -7.6,6.48 -15.36,12.7734 -23.28,18.8667 -6.6134,5.16 -13.4,10.2267 -20.2267,15.1467 -11.8667,8.52 -24,16.6666 -36.3867,24.4266 -19.0799,12 -38.7066,23.04 -58.8133,33.1067 C 1935.04,2277.6 1915,2286.48 1894.64,2294.44 c -9.32,3.6534 -18.6934,7.1067 -28.1867,10.2934 -21.72,7.44 -43.84,13.84 -66.2,19.1333 -21.8667,5.1733 -44,9.2933 -66.3067,12.36 -21.7333,2.9467 -43.6266,4.8933 -65.5733,5.8 -6.8,0.2667 -13.5867,0.4267 -20.3867,0.52 -3.2,0.053 -6.4,0.053 -9.6266,0.027 -22.9867,-0.093 -45.9467,-1.2934 -68.8,-3.6134 -22.3867,-2.2933 -44.6534,-5.6533 -66.6934,-10.08 -21.56,-4.2933 -42.88,-9.6 -63.9066,-15.88 7.4133,-22.9466 14.8,-45.8666 22.1466,-68.8 17.3334,5.1067 34.9067,9.4534 52.5867,13.0267 1.5067,-9.92 3.04,-19.84 4.5333,-29.76 -16.12,-3.3333 -32.0533,-7.3467 -47.8533,-12.0267 -9.5733,-2.7866 -19.1067,-5.8533 -28.5333,-9.16 -16.2667,-5.68 -32.3067,-12.0533 -48,-19.1333 -20.5334,-9.1867 -40.5334,-19.5733 -59.8934,-31.08 -12.5946,-7.48 -24.9506,-15.44 -36.9773,-23.88 -1.4213,-0.9867 -2.8147,-2 -4.2373,-3.0133 -8.1454,-5.8134 -16.1254,-11.8267 -23.9707,-18.04 -13.5573,-10.7334 -26.6507,-22.0534 -39.224,-33.92 -16.372,-15.4667 -31.8693,-31.8134 -46.412,-48.9467 -10.5773,-12.44 -20.6093,-25.32 -30.148,-38.5467 19.844,-13.5333 39.716,-27.0266 59.56,-40.56 7.2973,10.1067 14.924,19.8934 22.932,29.4134 7.38,-7 14.732,-13.9734 22.0853,-20.9467 -6.9146,-8.3067 -13.5573,-16.8267 -19.872,-25.6 -5.904,-8.0933 -11.5333,-16.3467 -16.864,-24.7733 -6.2866,-9.7867 -12.1906,-19.7867 -17.7666,-29.9867 -10.7414,-19.7333 -20.2267,-40.1733 -28.236,-61.2533 -0.8187,-2.0667 -1.5854,-4.1734 -2.3774,-6.2534 -2.9253,-7.9866 -5.604,-16.0133 -8.0906,-24.1066 -2.9254,-9.5467 -5.576,-19.1867 -7.8987,-28.8934 -2.7613,-11.4533 -5.1387,-22.9866 -7.0533,-34.6 -3.7174,-22.2 -5.904,-44.6666 -6.5587,-67.16 -0.356,-10.56 -0.3293,-21.1066 0.027,-31.6533 13.4213,0.84 26.84,1.6933 40.2613,2.5467 10.688,0.68 21.348,1.36 32.036,2.04 -0.2187,6.68 -0.2733,13.3466 -0.1373,19.9866 0.3826,22.5467 2.596,45.04 6.56,67.1867 1.3386,7.5467 2.924,15.0533 4.7013,22.5467 2.2427,9.7333 4.8653,19.3466 7.872,28.92 1.9947,6.5066 4.1827,12.9333 6.5333,19.3466 7.68,21.1067 17.0827,41.64 28.1254,61.3467 3.6906,6.5867 7.572,13.0533 11.588,19.4267 5.3573,8.4533 10.9613,16.7066 16.8933,24.7333 4.1,5.6133 8.3373,11.08 12.7093,16.4533 14.2147,17.4934 29.7934,33.84 46.5534,48.88 5.4933,4.9734 11.12,9.7867 16.92,14.4267 7.7866,6.32 15.7866,12.36 24.0266,18.0667 5.7067,4 11.56,7.8533 17.4934,11.56 12.08,7.5733 24.5733,14.52 37.4133,20.8 7.4133,3.64 14.8933,7.0266 22.52,10.2533 6.7867,2.8133 13.6133,5.4667 20.5333,7.9067 9.4,3.4133 18.9334,6.4533 28.56,9.12 6.7467,1.9466 13.5867,3.6933 20.44,5.2533 21.9867,5.0267 44.28,8.3333 66.7867,9.8933 7.2933,0.52 14.56,0.8267 21.8667,0.96 10,0.1867 20.0266,0.027 30.0133,-0.52 6.9867,-0.3333 14.0133,-0.88 20.9867,-1.6133 9.04,-0.88 18.0933,-2.1067 27.08,-3.6133 13.24,-2.24 26.36,-5.1067 39.28,-8.6 7.08,-1.8934 14.1066,-4 21.0533,-6.2934 9.5067,-3.0933 18.9067,-6.56 28.1467,-10.3333 6.4533,-2.6267 12.88,-5.4133 19.1866,-8.36 20.4,-9.48 40.0534,-20.6133 58.72,-33.2133 6.1467,-4.0934 12.16,-8.3867 18.0667,-12.84 12.6533,15.68 25.3333,31.3466 38.0133,47.0133 2.4934,3.0533 4.92,6.12 7.4134,9.1467 -4.1867,3.2266 -8.4534,6.3733 -12.76,9.44 -5.04,3.5733 -10.1467,7.08 -15.3067,10.4666 -18.84,12.3467 -38.4933,23.4 -58.7733,33.0934 -9.7867,4.7066 -19.7334,9.0266 -29.7867,13.0666 -9.2933,3.72 -18.7067,7.16 -28.1867,10.3067 -10.8266,3.6133 -21.7866,6.8667 -32.8,9.7333 1.8,9.9734 3.64,19.9734 5.4667,29.96 12.7067,-3.2 25.3067,-6.8933 37.7467,-11.08 8.2533,22.56 16.48,45.1067 24.68,67.68 -16.2667,5.52 -32.7734,10.3334 -49.4667,14.4667 -21.8667,5.3467 -44.04,9.48 -66.3467,12.3467 -16.28,2.1066 -32.6533,3.5333 -49.08,4.24 -0.4933,-24.1334 -0.9333,-48.2934 -1.4,-72.44 12.52,-0.56 25.04,-1.5467 37.48,-3.0267 -1.8133,-9.92 -3.6133,-19.84 -5.4133,-29.76 -10.8533,1.28 -21.7333,2.1733 -32.64,2.6933 -7.24,0.36 -14.52,0.5467 -21.7867,0.5867 -2.7333,0.027 -5.4933,0 -8.2266,-0.04 -11.3734,-0.1333 -22.7734,-0.68 -34.1334,-1.6 -22.4666,-1.84 -44.7466,-5.1733 -66.72,-10.0133 -10.6666,-2.3467 -21.2666,-5.0267 -31.76,-8.0934 -9.6266,-2.7333 -19.1733,-5.8133 -28.6,-9.1466 -10.7733,-3.8267 -21.4,-8.0134 -31.8666,-12.5734 -20.64,-8.9733 -40.6667,-19.3066 -59.92,-31.0533 -9.32,-5.6533 -18.4134,-11.6133 -27.3334,-17.9067 -0.32,-0.2133 -0.7066,-0.4933 -1.04,-0.7333 -7.8133,-5.5467 -15.4666,-11.32 -22.928,-17.3067 -8.992,-7.1866 -17.7386,-14.68 -26.184,-22.4933 -7.3533,6.9733 -14.6786,13.9067 -22.0306,20.88 9.676,9.0267 19.7066,17.6533 30.0373,25.8667 7.8187,6.2533 15.8267,12.2666 23.9987,18.0266 10.2266,7.2534 20.72,14.1334 31.44,20.5867 16.2533,9.84 33.0933,18.7733 50.4,26.76 3.1466,1.4533 6.3066,2.8667 9.48,4.2667 12.0533,5.28 24.3066,10.0533 36.7066,14.4 9.44,3.3333 18.9734,6.3733 28.6,9.1333 12.0267,3.4933 24.2134,6.56 36.4534,9.16 22.0133,4.72 44.3066,8.0267 66.7466,9.9467 13.0667,1.12 26.1334,1.7733 39.2267,1.9066 0.4667,24.1734 0.9067,48.3867 1.3733,72.5467 -17.2,-0.1333 -34.3866,-0.9867 -51.48,-2.5733 -1.3066,8.7466 -2.6133,17.4933 -3.96,26.24 -0.1866,1.16 -0.3466,2.3066 -0.5466,3.4533 18.8133,1.8 37.6933,2.76 56.5866,2.8933 9.9734,0.08 19.9734,-0.08 29.9867,-0.4933 18.04,-0.7067 36.08,-2.2133 53.9733,-4.5067 13.4,-1.6933 26.7334,-3.8266 40,-6.4 8.8534,-1.72 17.6267,-3.6266 26.3734,-5.7333 18.4133,-4.4267 36.6,-9.7067 54.4666,-15.7733 9.4667,-3.2267 18.8667,-6.6667 28.16,-10.36 16.7334,-6.5867 33.2134,-13.92 49.3334,-21.92 -4.9734,-8.8534 -9.9467,-17.72 -14.92,-26.6 -14.68,7.24 -29.6534,13.8533 -44.88,19.84 -8.2,-22.5734 -16.4267,-45.12 -24.68,-67.6934 11.5866,-4.6266 23.0133,-9.68 34.24,-15.1466 20.2533,-9.7867 39.88,-20.8534 58.7733,-33.1867 11.04,-7.16 21.8133,-14.76 32.3067,-22.7733 7.9466,-6.04 15.7466,-12.32 23.28,-18.8267 9.4666,-8.0133 18.5866,-16.4 27.4266,-25.0933 1.8533,-1.8 3.7067,-3.64 5.52,-5.52 14.0133,-14.1867 27.16,-29.16 39.3867,-44.8 8.1733,-10.4934 15.9333,-21.2667 23.28,-32.3334 5.5466,-8.3066 10.8533,-16.8133 15.88,-25.4266 6.2133,-10.5734 12.0266,-21.3734 17.4666,-32.36 10.0134,-20.1467 18.7334,-40.9467 26.08,-62.24 4.3734,-12.6534 8.2534,-25.4667 11.6667,-38.4267 2.5467,-9.6533 4.8133,-19.4 6.8133,-29.2133 1.56,-7.6267 2.9467,-15.3067 4.1467,-23.0267 0.6933,-4.2267 1.2933,-8.4933 1.84,-12.76 -10.0133,-0.68 -20.04,-1.36 -30.0667,-2.0533 -1.3733,10.3866 -3.12,20.72 -5.2,31 -1.9333,9.8133 -4.1733,19.5733 -6.7466,29.2533 -2.9867,11.28 -6.3467,22.4933 -10.1467,33.5867 -0.5467,1.64 -1.1467,3.28 -1.72,4.9466 -6.9333,19.6 -15.1067,38.7334 -24.4667,57.24 -4.7733,9.5067 -9.8933,18.8267 -15.2666,27.9867 -5.0667,8.64 -10.4,17.1067 -16,25.4 -6.4134,9.5867 -13.2,18.96 -20.3067,28.0933 -13.8,17.7334 -28.8133,34.5734 -44.9066,50.3467 -7.68,7.5467 -15.5734,14.8133 -23.7467,21.84 -8.4267,-10.4133 -16.8667,-20.88 -25.32,-31.2933 -6.6933,-8.28 -13.3867,-16.5467 -20.12,-24.8267 5.2,-4.5067 10.3067,-9.16 15.28,-13.88 0.3067,-0.3067 0.64,-0.6 0.9333,-0.9067 15.9867,-15.36 30.6667,-31.92 43.9467,-49.4933 4.52,-5.9867 8.8667,-12.0533 13.04,-18.2667 5.5867,-8.28 10.88,-16.7466 15.88,-25.4133 3.4,-5.8533 6.6133,-11.76 9.68,-17.7733 10.3333,-19.9734 19.0533,-40.7734 26.08,-62.2 2.3733,-7.2267 4.56,-14.52 6.5066,-21.84 2.5067,-9.2134 4.6934,-18.5067 6.56,-27.88 0.08,-0.4667 0.16,-0.9067 0.24,-1.3467 1.2534,-6.48 2.3867,-12.96 3.36,-19.4667 3.28,-22.32 4.7867,-44.8533 4.5734,-67.32 -0.08,-7.76 -0.36,-15.4933 -0.88,-23.2533 -0.6267,-9.9733 -1.64,-19.9333 -2.9467,-29.8533 -0.9067,-6.3867 -1.8933,-12.76 -3.0667,-19.08 -4.0133,-22.16 -9.8133,-43.9467 -17.3333,-65.2134 -2.6533,-7.44 -5.5467,-14.8133 -8.6,-22.1066 -0.96,-2.3067 -1.9467,-4.6 -2.96,-6.8934 -3.0533,-6.84 -6.28,-13.6133 -9.7067,-20.3066 -2.8133,-5.64 -5.8133,-11.2134 -8.9333,-16.7067 -11.0666,-19.6267 -23.6666,-38.32 -37.6933,-55.9467 -5,-6.2933 -10.1333,-12.4666 -15.52,-18.4533 -6.5867,-7.4933 -13.5067,-14.7333 -20.64,-21.7067 -4.4533,-4.3466 -9,-8.6 -13.64,-12.7333 -16.76,-15.0533 -34.68,-28.76 -53.68,-40.8933 -3.04,-1.9333 -6.0933,-3.88 -9.2133,-5.7333 -3.8534,-2.3467 -7.76,-4.6267 -11.72,-6.8134 -8.72,-4.8933 -17.6134,-9.4533 -26.6534,-13.6933 -5.5733,-2.6267 -11.24,-5.16 -16.92,-7.5067 -20.7733,-8.6933 -42.2266,-15.6933 -64.0933,-21 -7.96,-1.9333 -15.9733,-3.64 -24.0267,-5.1066 l 10.5734,-71.7867 c 12.1066,2.16 24.1333,4.7867 36,7.8533 3.08,-9.5466 6.2,-19.08 9.3466,-28.6266 -13.5333,-3.52 -27.2,-6.4934 -40.9733,-8.9067 -9.84,-1.7467 -19.7067,-3.2267 -29.6533,-4.4 -11.56,-1.3867 -23.1867,-2.4 -34.8267,-2.9733 -22.44,-1.24 -45.0133,-1.04 -67.4533,0.6266 -6.1334,0.4667 -12.2534,1.0134 -18.3467,1.6934 -7.8133,0.84 -15.6,1.88 -23.4,3.12 -4.4267,-23.6534 -8.8267,-47.32 -13.2267,-70.96 17.8534,-2.9334 35.8134,-5 53.88,-6.2934 -0.12,-8.9066 -0.2533,-17.8133 -0.3866,-26.76 -0.027,-1.1733 -0.027,-2.32 -0.053,-3.4933 -11.6666,0.7333 -23.3733,1.8267 -34.9866,3.2267 -8.04,0.9866 -16.08,2.1333 -24.0267,3.4133 -9.8933,1.5867 -19.7067,3.4133 -29.4667,5.4933 -16.84,3.56 -33.5333,7.8134 -50.0266,12.7734 -21.56,6.4666 -42.7734,14.0933 -63.4934,22.8133 -18.2,7.68 -36.0533,16.2133 -53.4666,25.56 -8.8,4.7333 -17.5134,9.6533 -26.096,14.76 -14.8427,8.88 -29.328,18.3733 -43.4054,28.4 -17.576,12.5733 -34.4946,26 -50.7306,40.32 -0.656,0.5733 -1.312,1.1733 -1.968,1.7733 -14.76,13.0934 -28.836,26.8667 -42.2294,41.28 -1.8586,-1.6666 -3.7186,-3.32 -5.604,-4.9866 -16.072,-14.24 -32.144,-28.48 -48.2146,-42.7467 16.1253,-17.4133 33.1266,-34 50.976,-49.72 -6.3974,-7.9733 -12.7934,-15.9333 -19.188,-23.88 -19.216,16.8 -37.4747,34.6533 -54.696,53.32 -6.804,7.36 -13.4187,14.8133 -19.8974,22.44 -14.8426,17.4933 -28.864,35.6667 -41.9853,54.4533 -12.9,18.4134 -24.9547,37.44 -36.0787,56.9867 -12.57329,22 -23.97062,44.6666 -34.19462,67.8666 -22.276,-9.2666 -44.608,-18.56 -66.884,-27.8266 11.836,-26.9734 25.17333,-53.2667 39.93333,-78.72 11.29067,-19.4533 23.34267,-38.4267 36.24533,-56.88 15.30534,-21.9733 31.73336,-43.1867 49.17196,-63.5467 6.4787,-7.6 13.1214,-15.0933 19.8987,-22.4133 20.008,-21.7333 41.192,-42.3733 63.468,-61.7733 16.9467,-14.7867 34.5227,-28.8934 52.644,-42.17338 19.324,-14.24 39.2787,-27.61333 59.832,-40.04 2.2973,-1.37333 4.592,-2.73333 6.8613,-4.10666 5.22,9.21333 10.4694,18.48 15.6894,27.69333 6.6133,11.69333 13.2293,23.36 19.844,35.04001 -19.6254,11.6133 -38.676,24.16 -57.1547,37.5467 6.3693,7.96 12.7387,15.92 19.1333,23.8133 14.952,-10.8533 30.3667,-21.1333 46.1934,-30.8 2.2426,-1.3733 4.5106,-2.76 6.8066,-4.1067 8.6094,-5.1333 17.3027,-10.0533 26.076,-14.7866 21.02,-11.32 42.5534,-21.5334 64.5667,-30.61338 20.8,-8.61333 42.04,-16.21333 63.5467,-22.77333 20.1466,-6.14667 40.5866,-11.41333 61.2266,-15.73333 9.76,-2.05334 19.6,-3.90667 29.44,-5.52 23.56,-3.94667 47.28,-6.65333 71.1467,-8.12 22.44,-1.42667 44.96,-1.76 67.4533,-0.93333 7.28,0.21333 14.5467,0.6 21.84,1.09333 13.7467,0.90667 27.4667,2.24 41.1334,3.93333 l -10.5734,71.81331 c -17.0266,-2.1333 -34.1333,-3.5866 -51.28,-4.2933 0.1467,10.0267 0.28,20.0267 0.44,30.04 5.44,0.24 10.9067,0.5733 16.3467,0.9867 10.0533,0.7066 20.12,1.6933 30.12,2.92 9.92,1.2266 19.8133,2.7066 29.6533,4.4533 17.8267,3.0933 35.48,6.9733 52.92,11.6667 21.76,5.8266 43.16,12.9066 64.0934,21.1333 14.4933,5.68 28.76,11.92 42.76,18.72 -11.0534,21.3467 -22.0934,42.72 -33.1334,64.1067 -10.5466,-5.04 -21.2666,-9.7334 -32.0933,-14.0534 -3.1333,9.6134 -6.28,19.24 -9.4267,28.84 9.2934,3.76 18.5067,7.84 27.5467,12.1867 9.0267,4.2933 17.9067,8.88 26.6533,13.7467 10.6934,5.9066 21.1334,12.24 31.36,18.9733 14.84,9.7067 29.16,20.2533 42.9067,31.5733 3.64,3.0267 7.2667,6.0934 10.8267,9.2267 7.6266,6.64 15.0266,13.5333 22.1866,20.64 7.1067,7.0266 14.0267,14.24 20.6667,21.7066 8.0933,9.0134 15.8533,18.3067 23.2933,27.9067 13.8,17.76 26.3733,36.4667 37.6667,55.9467 5.1066,8.8266 9.9733,17.8 14.5333,26.92 4.4933,8.9466 8.6933,17.9866 12.6267,27.2 4.7333,11.0133 9.0533,22.2 12.9333,33.5733 2.4,6.88 4.6533,13.88 6.72,20.9067 4.2933,14.56 7.9067,29.36 10.8267,44.2266 1.9733,10.16 3.6666,20.36 4.9733,30.6134 1.3467,9.92 2.3333,19.8666 3.04,29.84 0.84,11.8133 1.28,23.6533 1.2533,35.5066 10.0267,0.6534 20.0667,1.3467 30.0934,2.0267 0.053,-13.56 -0.4134,-27.0933 -1.3867,-40.5867 24.0267,-2.4666 48.0533,-4.8933 72.1067,-7.36 1.3333,17.5734 1.88,35.24 1.6666,52.8667 -0.2533,22.4933 -1.76,44.9867 -4.5466,67.32 -1.96,15.88 -4.5334,31.6533 -7.76,47.32 -2.0267,9.8133 -4.2934,19.5333 -6.7734,29.24 -4.4,16.92 -9.52,33.68 -15.36,50.16 v 0.027 c -7.5466,21.24 -16.2933,41.9866 -26.1866,62.16 -7.1067,14.5066 -14.7867,28.72 -23.08,42.5866 -5.1067,8.5734 -10.44,17.0534 -15.96,25.36 -9.64,14.4667 -19.84,28.48 -30.6934,42.0667 -13.9866,17.5733 -29,34.4133 -44.9066,50.3467 -11.48,11.5066 -23.4267,22.5733 -35.8134,33.1066 -7.5866,6.4667 -15.3866,12.7867 -23.28,18.88 -6.1466,4.7067 -12.4133,9.32 -18.7199,13.8267 -7.7734,5.4667 -15.64,10.7733 -23.6267,15.8933 4.4,7.84 8.8133,15.7067 13.2133,23.5334 0.5467,1 1.12,1.9866 1.6667,3 15.9867,-10.2 31.5333,-21.04 46.5733,-32.64 7.92,-6.0934 15.72,-12.3734 23.3333,-18.8267 13.6667,-11.56 26.8534,-23.72 39.48,-36.4133 2.7867,-2.76 5.4934,-5.5467 8.2,-8.36 12.8934,-13.4534 25.1467,-27.44 36.7334,-41.96 11.92,-14.92 23.12,-30.36 33.6133,-46.2934 2.1333,1.3334 4.2667,2.6667 6.4,4.0134 18.2,11.4 36.4133,22.8266 54.64,34.2533 -12.7333,19.32 -26.4267,38.0133 -41,55.9733 7.6533,6.8267 15.28,13.64 22.9333,20.44 15.6934,-19.32 30.3734,-39.4666 43.92,-60.24 5.4667,-8.3866 10.7734,-16.8666 15.8534,-25.4133 11.9466,-20.0133 22.9066,-40.6 32.8533,-61.64 9.6267,-20.3067 18.3467,-41.0533 26.0533,-62.1867 8.6134,-23.4533 15.9867,-47.3333 22.1734,-71.5866 2.4533,-9.6667 4.72,-19.4267 6.8,-29.2134 2.76,-13.0666 5.2,-26.2666 7.24,-39.4933 1.5066,-9.6267 2.8,-19.28 3.88,-28.92 2.6,-22.3867 4.1066,-44.8533 4.6,-67.3333 0.5733,-25.1467 -0.1867,-50.28 -2.1867,-75.2934 -0.8,-9.9866 -1.8,-19.9333 -3.0133,-29.88 -2.76,-22.8266 -6.6134,-45.5066 -11.5067,-67.9733 -9.7333,2.6267 -19.4533,5.24 -29.1867,7.8667 4.56,20.88 8.12,41.96 10.7467,63.1733 1.2,9.92 2.2133,19.8667 3.0267,29.8667 1.84,23.3466 2.5466,46.7733 2.0533,70.2 -0.44,22.4933 -1.9467,44.96 -4.5333,67.3466 -2.4667,21.3467 -5.9067,42.5867 -10.3067,63.6267 -2.0533,9.7867 -4.32,19.5467 -6.8133,29.2267 -4.92,19.5466 -10.7334,38.8666 -17.4134,57.92 -1.0266,2.9466 -2.0933,5.9066 -3.16,8.8266 -7.7466,21.16 -16.48,41.9067 -26.2133,62.1334 -9.3733,19.56 -19.68,38.64 -30.84,57.2 -20.3867,-12.76 -40.7467,-25.56 -61.1467,-38.3467 9.08,-15.28 17.4667,-30.9733 25.2134,-46.9867 9.7733,-20.2266 18.4666,-41 26.04,-62.1866 6.4533,-18.0667 12.1066,-36.4267 16.8933,-55.04 2.52,-9.68 4.76,-19.4134 6.8133,-29.2267 2.5067,-12.08 4.6667,-24.24 6.4667,-36.4933 0.7733,-5.1867 1.4533,-10.3867 2.08,-15.6 2.7333,-22.36 4.24,-44.8267 4.6,-67.2934 0.2667,-19.36 -0.3333,-38.7066 -1.84,-57.9733 -0.7333,-9.9867 -1.72,-19.9333 -2.9733,-29.8533 -2.1334,-17.3334 -5.0267,-34.5734 -8.64,-51.68 -4.5867,-22.04 -10.4134,-43.8 -17.36,-65.2267 -6.0134,-18.5067 -12.8934,-36.76 -20.6934,-54.6933 -3.96,-9.1867 -8.1466,-18.2534 -12.6,-27.2267 -0.7333,-1.52 -1.4933,-3.08 -2.2933,-4.6133 -7.0267,-13.9734 -14.56,-27.64 -22.6,-41.0267 -11.5867,-19.32 -24.2267,-38 -37.7733,-55.92 -11.8134,-15.72 -24.36,-30.8133 -37.56,-45.2666 1.6933,-1.6667 3.4133,-3.28 5.1333,-4.92 15.6133,-14.9467 31.28,-29.9334 46.9067,-44.88 15.96,17.52 31.08,35.8 45.2133,54.7733 13.4133,18.04 26.0267,36.7333 37.6933,55.9733 11.0134,18.0933 21.2134,36.7333 30.56,55.7867 4.4,8.9466 8.6,18.04 12.6267,27.2 9.48,21.5733 17.88,43.6 25.12,66.0666 9.8133,-2.6266 19.6,-5.28 29.3867,-7.8933 -7.6267,-24.08 -16.52,-47.7867 -26.68,-71.0133 21.76,-10.04 43.5066,-20.0667 65.24,-30.12 11.8666,26.84 22.3066,54.3066 31.16,82.3466 2.16,6.84 4.24,13.72 6.2,20.64 4.24,14.7334 8.0133,29.5467 11.3466,44.4934 5.9067,26.24 10.44,52.7866 13.64,79.44 1.2,9.9466 2.2134,19.8933 3.0134,29.8666 2.4266,29.12 3.2533,58.36 2.48,87.5467 -0.5734,22.5067 -2.1067,44.9467 -4.5334,67.3333 -2.92,26.8667 -7.2133,53.5734 -12.8533,80 -2.0667,9.7867 -4.3467,19.5467 -6.7733,29.2134 -6.2,24.72 -13.5867,49.0666 -22.1734,73.0933 -1.2,3.3867 -2.4533,6.7867 -3.7066,10.1733 9.2133,3.9067 18.4133,7.7867 27.6533,11.64 10.72,-28.7866 19.9067,-58.2266 27.4133,-88.0933 2.4667,-9.7067 4.7067,-19.44 6.8134,-29.2267 3,-14.0666 5.6533,-28.2266 7.92,-42.44 2.28,-14.08 4.16,-28.1866 5.6933,-42.32 2.4267,-22.3866 3.96,-44.88 4.5867,-67.3466 0.8533,-30.9067 -0.027,-61.8534 -2.6,-92.6267 24.08,-2.4667 48.1333,-4.92 72.1866,-7.3867 2.7867,32.1734 3.7734,64.5067 3.0667,96.7867 -0.053,2.7067 -0.1333,5.44 -0.1867,8.1467 9.9734,0.68 19.9734,1.3733 29.9867,2.0533 1.2,-36.7067 0.2933,-73.4533 -2.8267,-110.04 -0.7866,-9.9867 -1.8,-19.9067 -2.9733,-29.8533 -1.4,-12 -3.04,-23.9467 -4.8933,-35.8667 -3.4134,-21.6667 -7.6,-43.2667 -12.52,-64.64 -5.0267,-21.92 -10.88,-43.68 -17.4934,-65.1867 -10.8533,-35.24 -23.7733,-69.84 -38.7066,-103.5466 -4.0134,-9.1467 -8.2267,-18.2267 -12.5734,-27.24 -1.6933,-3.5067 -3.4133,-7 -5.1333,-10.5067 -13.3733,-26.8133 -28.0133,-53.0266 -43.8667,-78.4666 -11.92,-19.1067 -24.4933,-37.7467 -37.7466,-55.96 -21.7867,-29.92 -45.2934,-58.6 -70.4134,-85.7334 9.5067,-9.07998 19,-18.15998 28.5067,-27.22664 7.7867,-7.49334 15.6133,-14.92 23.4,-22.38667 27.9333,30.09333 54.0133,61.90671 78.0933,95.14671 7.1067,9.84 14.0667,19.8133 20.8267,29.9333 5.76,8.5733 11.4,17.2667 16.8667,26.04 20.0533,32.0133 38.32,65.08 54.6666,99.0933 4.3334,9.0134 8.52,18.0934 12.6,27.2134 16.64,37.4 31.04,75.7733 43.0934,114.9466 9.7866,-2.6533 19.6,-5.28 29.4133,-7.9333 -12.4,-40.8267 -27.3067,-80.9067 -44.6267,-119.88 -4.0533,-9.16 -8.2666,-18.24 -12.5733,-27.2533 -2.28,-4.7067 -4.5733,-9.4267 -6.8933,-14.1067 -15.2534,-30.56 -32.0134,-60.3733 -50.1867,-89.2933 -11.9733,-19.0534 -24.5467,-37.6934 -37.72,-55.96 -25.0667,-34.68004 -52.2,-67.86671 -81.32,-99.21337 -4.0133,-4.32 -8.0533,-8.64 -12.16,-12.90667 -2.84,-2.92 -5.68,-5.86667 -8.5467,-8.8 -27.5866,-28.01333 -56.72,-54.44 -87.2533,-79.14667 -6.1467,8.13334 -12.3067,16.28 -18.4533,24.42667 29.2266,23.76 57.1066,49.14667 83.48,75.98667 -14.6534,14 -29.3067,28.01333 -43.9867,42.03999 -2.64,2.52 -5.2667,5.05334 -7.92,7.57334 -23.6933,-24.05334 -48.7333,-46.82667 -74.92,-68.14667 -17.44,-14.24 -35.3733,-27.82666 -53.8,-40.72 -28.2,-19.81333 -57.56,-38.10666 -87.8133,-54.64 -2.2934,-1.25333 -4.6,-2.52 -6.8934,-3.74666 -8.8266,-4.70667 -17.7066,-9.29333 -26.6533,-13.72 -30.2267,-14.98667 -61.2533,-28.32 -92.8933,-39.90667 -3.12,9.53334 -6.24,19.08 -9.36,28.61334 4.2133,1.56 8.4,3.14666 12.5733,4.76 25.7867,9.94666 51.0667,21.10666 75.8,33.39999 8.9333,4.42667 17.8267,9.02667 26.6267,13.77334 31.1333,16.78666 61.28,35.42666 90.28,55.76 16.56,11.65333 32.7466,23.84 48.4933,36.57333 1.7467,1.42667 3.4667,2.84 5.2133,4.26667 24.8534,20.38666 48.6,42.09333 71.1734,64.94667 7,7.1333 13.92,14.3467 20.6933,21.6933 23.92,25.92 46.36,53.1734 67.1867,81.68 6.8666,9.4267 13.5866,19 20.0933,28.6934 6.04,8.9733 11.8933,18.0666 17.6267,27.2533 17.0266,27.3867 32.5866,55.68 46.6,84.7067 4.3466,9 8.56,18.0666 12.5733,27.2266 14.2667,32.12 26.6533,65.0533 37.0933,98.6133 1.0667,3.4534 2.1067,6.8667 3.1467,10.3334 5.3867,18.12 10.2267,36.4133 14.4533,54.84 7.28,31.56 12.8267,63.52 16.6534,95.6933 -24.0534,2.4267 -48.08,4.8667 -72.1334,7.32 -3.36,-28.2933 -8.1733,-56.4133 -14.4,-84.2133 -4.8933,-21.9467 -10.6933,-43.7067 -17.3866,-65.1867 -9.2134,-29.6533 -20.0934,-58.8 -32.6667,-87.3333 -4.0133,-9.1334 -8.2,-18.2 -12.5467,-27.2 l -3.52,-7.1333 c -11.4533,-23.04 -23.9733,-45.56 -37.5066,-67.4 -11.8134,-19.16 -24.44,-37.8267 -37.72,-55.96 -18.5067,-25.1334 -38.3734,-49.2534 -59.5334,-72.2134 -6.7466,-7.3466 -13.6666,-14.56 -20.6933,-21.6666 -19.8667,-20.12 -40.72,-39.2267 -62.5333,-57.21338 -17.3334,-14.32 -35.2667,-27.96 -53.7334,-40.84 -24.2,-16.89333 -49.3466,-32.46666 -75.28,-46.62666 -1.56,-0.88 -3.1466,-1.72 -4.7333,-2.57333 -8.8,-4.72 -17.7067,-9.32 -26.64,-13.72 -25.3466,-12.46667 -51.3066,-23.58667 -77.7733,-33.4 -21.0933,-7.81334 -42.4667,-14.78667 -64.1467,-20.88 -30.1733,-8.53334 -60.8133,-15.38667 -91.76,-20.46667 L 1787.16,744.4934 c 34.96,5.74666 69.6533,13.53333 103.7066,23.32 l 9.3467,-28.61334 c -26.92,-7.77333 -54.2533,-14.30666 -81.7733,-19.6 -8.9467,-1.72 -17.9067,-3.30666 -26.9067,-4.78666 l 10.5867,-71.77333 c 40.6933,6.64 81.0133,15.70666 120.6133,27.24 21.6,6.29333 43,13.29333 64.1333,20.99999 5.9334,2.18667 11.8267,4.37334 17.7067,6.64 29.2266,11.29334 57.8666,23.94667 85.8533,37.96 8.9733,4.44 17.8533,9.05334 26.6267,13.78667 36.2933,19.50667 71.36,41.21333 104.96,65.02666 6.1466,-8.14666 12.2933,-16.26666 18.4266,-24.38666 -32.84,-23.2 -67,-44.49333 -102.2933,-63.74667 -2.4,-1.28 -4.7733,-2.56 -7.16,-3.85333 -8.8267,-4.69333 -17.68,-9.29333 -26.6133,-13.72 -35.1334,-17.49333 -71.2667,-32.96 -108.1333,-46.34666 -21.16,-7.69334 -42.56,-14.68 -64.1467,-20.97334 -31.52,-9.21333 -63.5067,-16.89333 -95.76,-23.04 -9.9467,-1.88 -19.8667,-3.64 -29.84,-5.25333 -9.8667,-1.61333 -19.76,-3.05333 -29.6667,-4.37333 h -0.027 c -38.8934,-5.16 -78,-8.2 -117.1734,-8.98667 -22.4933,-0.46667 -45.0133,-0.18667 -67.48,0.76 -25.48,1.14667 -50.8933,3.22667 -76.24,6.26667 -17.36,2.08 -34.6533,4.58666 -51.8533,7.54666 -4.4267,-23.68 -8.8533,-47.34666 -13.2533,-71.01333 10,-1.69333 20.04,-3.30666 30.0933,-4.76 36.52,-5.30666 73.3067,-8.77333 110.16,-10.36 22.4667,-1.01333 44.9867,-1.28 67.48,-0.88 43.08,0.74667 86.1067,3.97334 128.8533,9.68 h 0.027 c 9.8933,1.32 19.7867,2.76 29.6533,4.37334 0.9067,0.13333 1.8,0.28 2.7334,0.44 45.5066,7.46666 90.5333,17.73333 134.7866,30.74666 21.56,6.34667 42.96,13.34667 64.1467,21 40.5066,14.64 80.2266,31.64 118.7866,50.97333 3.2534,1.64 6.5067,3.28 9.7334,4.92 5.6533,2.89334 11.2933,5.88 16.8933,8.88 41.44,22.17333 81.4,46.98667 119.6667,74.21333 18.3066,13.06667 36.24,26.68 53.7333,40.81334 29.4667,23.8 57.7333,49.07999 84.6267,75.75999 3.72,3.69334 7.4666,7.46667 11.1466,11.24 7,7.13334 13.92,14.37334 20.6934,21.69334 31.8666,34.33333 61.6133,70.63999 88.9466,108.67999 2.4534,-1.64 4.8667,-3.28 7.32,-4.94666 6.0667,-4.09334 12.1467,-8.17334 18.2134,-12.29334 -28.2934,-39.50666 -59.0934,-77.19999 -92.2,-112.75999 -1.9734,-2.10667 -3.9334,-4.22667 -5.9334,-6.33334 -2.3466,-2.52 -4.76,-5.02666 -7.1866,-7.54666 -2.52,-2.62667 -5,-5.2 -7.5734,-7.78667 v -0.0267 c -31.4,-32.01333 -64.64,-62.10666 -99.5733,-90.19999 0,0 0.027,0 0.027,-0.0267 -4.6534,-3.74667 -9.3467,-7.46667 -14.0534,-11.10667 -2.8666,-2.21333 -5.7333,-4.42666 -8.6266,-6.64 -2.16,-1.64 -4.3467,-3.28 -6.5067,-4.92 -1.3733,-1.04 -2.76,-2.08 -4.16,-3.12 -3.0933,-2.32 -6.2267,-4.61333 -9.3733,-6.88 -3.6667,-2.68 -7.3867,-5.36 -11.0934,-8.01333 l -0.027,0.0267 c -36.8,-26.18667 -75.0934,-50.18667 -114.7734,-71.74667 -3.12,-1.69333 -6.24,-3.38666 -9.3866,-5.02666 -0.4,-0.25334 -0.8667,-0.49334 -1.3067,-0.72 -8.3867,-4.50667 -16.8133,-8.85334 -25.28,-13.09334 -0.027,0.04 -0.027,0.04 -0.027,0.0667 -40.08,-19.98667 -81.2933,-37.61333 -123.36,-52.73333 0,-0.0533 0.027,-0.08 0.053,-0.10667 -21.1867,-7.6 -42.5867,-14.6 -64.2,-20.93333 0,0.0267 0,0.0267 0,0.0533 -35.4267,-10.41333 -71.3467,-19.13333 -107.64,-26.08 -11.6133,-2.21333 -23.24,-4.26666 -34.8533,-6.12 -0.76,-0.10666 -1.5067,-0.25333 -2.2667,-0.36 -3.6133,-0.57333 -7.2133,-1.14666 -10.8533,-1.66666 -3.2267,-0.49334 -6.48,-0.96 -9.7067,-1.38667 -2.2933,-0.36 -4.56,-0.66667 -6.8533,-0.96 v 0.0267 c -44.3067,-5.96 -88.9734,-9.37334 -133.6934,-10.17334 v -0.0267 c -0.7866,-0.0267 -1.6133,-0.0267 -2.4266,-0.0267 -9.4934,-0.16 -18.9734,-0.18667 -28.4,-0.08 -9.4267,0.0533 -18.8134,0.28 -28.2134,0.6 -2.8133,0.08 -5.6,0.2 -8.4133,0.33333 -28.84,1.17334 -57.68,3.46667 -86.3467,6.88 -19.76,2.36 -39.44,5.22667 -59.0133,8.61334 -4.92,0.85333 -9.84,1.74666 -14.7333,2.65333 -0.8267,0.13333 -1.64,0.30667 -2.4267,0.46667 -3.7733,0.70666 -7.52,1.48 -11.2667,2.21333 -0.3333,0.0533 -0.68,0.10667 -1.0133,0.18667 -21.9467,4.4 -43.7867,9.42666 -65.4667,15.09333 -21.6426,5.68 -43.128,11.97333 -64.42,18.92 v -0.04 c -0.792,0.25333 -1.5586,0.52 -2.3506,0.77333 -0.7934,0.24 -1.5574,0.52 -2.324,0.76 -6.6694,2.21333 -13.2827,4.45333 -19.8974,6.78667 -2.46,0.86666 -4.92,1.74666 -7.3533,2.61333 -10.6067,3.77333 -21.1013,7.74667 -31.5707,11.84 -18.6413,7.29333 -37.0906,15.14667 -55.2946,23.42667 -26.132,11.89333 -51.8254,24.76 -76.9974,38.58666 -0.1653,0.12 -0.328,0.2 -0.4933,0.30667 -3.1707,1.74667 -6.3133,3.49333 -9.4573,5.28 -3.1694,1.77333 -6.2867,3.54667 -9.4294,5.36 -2.24,1.28 -4.4546,2.56 -6.6973,3.88 -38.7307,22.65333 -76.09466,47.58666 -111.87466,74.58666 l -0.028,-0.0267 c -1.85733,1.4 -3.68933,2.78666 -5.548,4.18666 -11.58933,8.85334 -23.016,17.89334 -34.22133,27.13334 -1.88533,1.58666 -3.772,3.14666 -5.63067,4.70666 -1.55733,1.28 -3.116,2.6 -4.67333,3.90667 -0.87467,0.73333 -1.696,1.45333 -2.59733,2.21333 h -0.0267 c -7.29867,6.2 -14.51467,12.49334 -21.64933,18.89334 -29.13733,25.98666 -56.93467,53.54666 -83.22933,82.39999 0,-0.0267 -0.028,-0.0267 -0.028,-0.0267 -0.356,0.41333 -0.73734,0.82666 -1.09334,1.24 -2.46,2.68 -4.864,5.34666 -7.216,8.05333 -1.884,2.13333 -3.79866,4.26667 -5.684,6.42667 -0.93066,1.04 -1.86,2.08 -2.73333,3.14666 -1.06667,1.2 -2.10533,2.4 -3.172,3.6 l 0.0293,0.0267 c -29.384,34.01333 -56.77333,69.81333 -81.91866,107.09336 h -0.0293 c -3.14267,4.6533 -6.23067,9.3333 -9.31867,14.0267 -1.312,2.0266 -2.624,4.04 -3.936,6.04 -5.276,8.2266 -10.49733,16.48 -15.55467,24.8266 -1.55733,2.5334 -3.06,5.08 -4.59066,7.64 -0.90267,1.48 -1.776,2.96 -2.652,4.4667 -24.708,41.76 -46.74,85.1067 -65.92667,129.6667 -0.028,0 -0.0547,-0.027 -0.10933,-0.027 -3.93733,9.1867 -7.764,18.44 -11.48133,27.7067 l 0.0827,0.04 c -16.728,41.84 -30.996,84.7333 -42.668,128.2933 -0.57333,2.16 -1.148,4.2933 -1.69466,6.4266 -0.57334,2.2934 -1.17467,4.5867 -1.748,6.8934 -1.25734,4.8933 -2.488,9.8133 -3.66267,14.7333 -0.68267,2.7333 -1.31333,5.4667 -1.94133,8.2 -1.668,7.16 -3.28,14.3733 -4.784,21.5867 -0.436,1.9733 -0.848,3.9333 -1.25734,5.9066 -0.136,0.6534 -0.24533,1.3067 -0.38266,1.9334 -9.75734,47.4 -16.536,95.3733 -20.308,143.5866 -0.3,4.0134 -0.62934,8.0134 -0.876,12 -0.19067,2.6 -0.35467,5.2 -0.51734,7.7867 -0.21866,3.4 -0.41066,6.7867 -0.576,10.1467 -2.376,45.1733 -2.02133,90.4933 1.012,135.6533"
       style="fill:#000000;fill-opacity:1;fill-rule:nonzero;stroke:none;stroke-width:0.133333" />
  </g>
</svg>
